<?xml version="1.0" standalone="no"?>
<!DOCTYPE svg PUBLIC "-//W3C//DTD SVG 1.1//EN" "http://www.w3.org/Graphics/SVG/1.1/DTD/svg11.dtd" >
<svg xmlns="http://www.w3.org/2000/svg" xmlns:xlink="http://www.w3.org/1999/xlink" version="1.1">
<metadata>
Created by FontForge 20150504 at Mon Jul 27 09:33:44 2015
 By Jimmy Wärting
Copyright (c) Mark Simonson, 2005. All rights reserved.
</metadata>
<defs>
<font id="ProximaNovaA-Regular" horiz-adv-x="1171" >
  <font-face 
    font-family="Proxima Nova Alt Rg"
    font-weight="400"
    font-stretch="normal"
    units-per-em="2048"
    panose-1="2 0 5 6 3 0 0 2 0 4"
    ascent="1618"
    descent="-430"
    x-height="989"
    cap-height="1366"
    bbox="-201 -408 2152 1823"
    underline-thickness="40"
    underline-position="-271"
    unicode-range="U+000D-FB02"
  />
<missing-glyph horiz-adv-x="748" 
d="M68 0v1365h544v-1365h-544zM136 68h408v1229h-408v-1229z" />
    <glyph glyph-name="uniFB01" unicode="fi" horiz-adv-x="1042" 
d="M33 854v135h164v76q0 154 78.5 237.5t207.5 83.5q92 0 152 -32l-39 -117q-18 10 -38.5 16.5t-49.5 6.5q-158 0 -158 -195v-76h201v-135h-201v-854h-153v854h-164zM709 1233q0 43 30.5 73.5t73.5 30.5t72.5 -30.5t29.5 -73.5t-29.5 -73t-72.5 -30t-73.5 30t-30.5 73z
M735 0v989h154v-989h-154z" />
    <glyph glyph-name="uniFB02" unicode="fl" horiz-adv-x="1132" 
d="M33 854v135h164v76q0 154 78.5 237.5t207.5 83.5q92 0 152 -32l-39 -117q-18 10 -38.5 16.5t-49.5 6.5q-158 0 -158 -195v-76h201v-135h-201v-854h-153v854h-164zM736 207v1159h153v-1126q0 -55 24.5 -91t76.5 -36q33 0 60.5 13t41.5 30l47 -117q-31 -29 -73.5 -46.5
t-110.5 -17.5q-111 0 -165 60.5t-54 171.5z" />
    <glyph glyph-name=".notdef" horiz-adv-x="748" 
d="M68 0v1365h544v-1365h-544zM136 68h408v1229h-408v-1229z" />
    <glyph glyph-name="glyph1" horiz-adv-x="0" 
 />
    <glyph glyph-name="uni000D" unicode="&#xd;" horiz-adv-x="0" 
 />
    <glyph glyph-name="glyph3" horiz-adv-x="0" 
 />
    <glyph glyph-name="glyph3" horiz-adv-x="0" 
 />
    <glyph glyph-name="space" unicode=" " horiz-adv-x="530" 
 />
    <glyph glyph-name="exclam" unicode="!" horiz-adv-x="471" 
d="M123 92q0 47 32.5 80t80.5 33q47 0 79.5 -33t32.5 -80q0 -45 -32.5 -78.5t-79.5 -33.5t-80 33.5t-33 78.5zM139 1366h193l-33 -983h-127z" />
    <glyph glyph-name="quotedbl" unicode="&#x22;" horiz-adv-x="704" 
d="M111 1292q0 39 26.5 66.5t65.5 27.5q41 0 67.5 -27.5t26.5 -66.5q0 -6 -2 -27.5t-6 -54t-9.5 -72.5t-11.5 -81q-12 -96 -26 -213h-76q-16 117 -29 213q-6 41 -10 81t-8 72.5t-6 54t-2 27.5zM408 1292q0 39 26.5 66.5t67.5 27.5q39 0 65.5 -27.5t26.5 -66.5q0 -6 -2 -27.5
t-6 -54t-9.5 -72.5t-11.5 -81q-12 -96 -26 -213h-76q-16 117 -29 213q-6 41 -10 81t-8 72.5t-6 54t-2 27.5z" />
    <glyph glyph-name="numbersign" unicode="#" horiz-adv-x="1210" 
d="M45 371l35 108h219l135 408h-221l33 106h225l123 373h127l-123 -373h225l123 373h125l-125 -373h219l-30 -106h-224l-137 -408h227l-32 -108h-232l-123 -371h-125l125 371h-227l-123 -371h-127l125 371h-217zM424 479h225l137 408h-225z" />
    <glyph glyph-name="dollar" unicode="$" horiz-adv-x="1214" 
d="M88 193l102 131q59 -70 150.5 -124.5t214.5 -68.5v498q-78 20 -154.5 46.5t-136 68.5t-96.5 105.5t-37 158.5q0 80 32 146.5t88 115.5t134 79.5t170 36.5v187h125v-189q129 -10 229.5 -60t175.5 -128l-102 -125q-61 68 -139 107t-164 51v-447q80 -23 157.5 -51.5
t139 -73.5t100.5 -112.5t39 -167.5q0 -70 -23.5 -137.5t-75.5 -123t-135 -93t-202 -46.5v-182h-125v182q-156 10 -272.5 68.5t-194.5 147.5zM307 1018q0 -43 19.5 -74t52.5 -54.5t78 -42t98 -32.5v418q-111 -8 -179.5 -66.5t-68.5 -148.5zM680 129q74 8 123 31.5t79.5 56.5
t44 72t13.5 76q0 49 -20.5 85.5t-56.5 63.5t-83 46.5t-100 35.5v-467z" />
    <glyph glyph-name="percent" unicode="%" horiz-adv-x="1499" 
d="M63 1047q0 74 25 135t68 107t103 71.5t134 25.5t134.5 -25.5t104.5 -71.5t67.5 -107.5t23.5 -134.5q0 -72 -23.5 -132.5t-67.5 -105.5t-104.5 -70.5t-134.5 -25.5t-134 25.5t-103 70.5t-68 105.5t-25 132.5zM186 1047q0 -98 57.5 -164t149.5 -66q45 0 84 17.5t65.5 48
t42 72.5t15.5 92q0 102 -57.5 168.5t-149.5 66.5t-149.5 -66.5t-57.5 -168.5zM262 0l873 1366h114l-874 -1366h-113zM776 311q0 72 24.5 133.5t67.5 107.5t103.5 71.5t134.5 25.5t134 -25.5t103 -71.5t67 -107.5t24 -133.5t-24 -133t-67 -106t-103 -71t-134 -26t-134.5 26
t-103.5 71t-67.5 106.5t-24.5 132.5zM897 311q0 -98 57.5 -164.5t151.5 -66.5q92 0 149.5 66.5t57.5 164.5q0 100 -57.5 167t-149.5 67q-94 0 -151.5 -66.5t-57.5 -167.5z" />
    <glyph glyph-name="ampersand" unicode="&#x26;" horiz-adv-x="1314" 
d="M76 356q0 80 24.5 141.5t66.5 109.5t96 86t114 71q-47 78 -76 156.5t-29 150.5q0 68 27 125t73 100t108.5 66.5t135.5 23.5q66 0 122.5 -17t97.5 -52t64.5 -85t23.5 -114q0 -78 -30 -134t-79 -101t-111.5 -81t-128.5 -69q41 -55 83 -105t77 -89q41 -49 81 -94.5t81 -88.5
q55 86 92 171t55 143l132 -60q-35 -82 -80 -174t-107 -178q61 -63 126 -125.5t140 -132.5h-213q-31 27 -69.5 64.5t-79.5 78.5q-76 -76 -172 -122t-221 -46q-88 0 -165 25t-134.5 72t-91 118.5t-33.5 165.5zM240 367q0 -63 22.5 -112.5t61 -83.5t88 -51.5t104.5 -17.5
q86 0 155.5 38t129.5 98q-59 61 -109.5 116.5t-79.5 89.5q-43 49 -86 103.5t-84 114.5q-86 -53 -144 -121t-58 -174zM430 1067q0 -53 23.5 -114.5t58.5 -121.5q55 27 104.5 54.5t86 61.5t58 74t21.5 91q0 76 -46 116t-115 40q-39 0 -74 -14.5t-60.5 -41t-41 -63.5t-15.5 -82
z" />
    <glyph glyph-name="quotesingle" unicode="'" horiz-adv-x="407" 
d="M111 1292q0 39 26.5 66.5t65.5 27.5q41 0 67.5 -27.5t26.5 -66.5q0 -6 -2 -27.5t-6 -54t-9.5 -72.5t-11.5 -81q-12 -96 -26 -213h-76q-16 117 -29 213q-6 41 -10 81t-8 72.5t-6 54t-2 27.5z" />
    <glyph glyph-name="parenleft" unicode="(" horiz-adv-x="507" 
d="M90 498q0 248 75 480t214 425l94 -70q-49 -98 -89 -192t-67.5 -194.5t-43 -210t-15.5 -238.5q0 -127 15.5 -237.5t43 -210t67.5 -195t89 -191.5l-94 -72q-139 193 -214 425.5t-75 480.5z" />
    <glyph glyph-name="parenright" unicode=")" horiz-adv-x="507" 
d="M35 -336q49 96 89 191.5t67.5 195t43 210t15.5 237.5q0 129 -15.5 238.5t-43 210t-67.5 194.5t-89 192l94 70q139 -193 214 -425.5t75 -479.5q0 -248 -75 -480.5t-214 -425.5z" />
    <glyph glyph-name="asterisk" unicode="*" horiz-adv-x="696" 
d="M70 985l209 107l-209 106l45 82l198 -129l-12 235h94l-12 -235l197 129l47 -82l-209 -106l209 -107l-47 -80l-197 127l12 -235h-94l12 235l-198 -127z" />
    <glyph glyph-name="plus" unicode="+" horiz-adv-x="1021" 
d="M59 637v106h394v424h116v-424h394v-106h-394v-436h-116v436h-394z" />
    <glyph glyph-name="comma" unicode="," horiz-adv-x="471" 
d="M117 -197q49 33 88 86.5t45 104.5q-8 -4 -29 -4q-41 0 -69.5 29.5t-28.5 74.5t30.5 78t77.5 33q53 0 91 -41t38 -115q0 -94 -47 -176t-118 -133z" />
    <glyph glyph-name="hyphen" unicode="-" horiz-adv-x="614" 
d="M61 428v135h492v-135h-492z" />
    <glyph glyph-name="period" unicode="." horiz-adv-x="473" 
d="M123 92q0 47 32.5 80t80.5 33q47 0 79.5 -33t32.5 -80t-32.5 -79.5t-79.5 -32.5t-80 32.5t-33 79.5z" />
    <glyph glyph-name="slash" unicode="/" horiz-adv-x="606" 
d="M0 -41l485 1448h121l-485 -1448h-121z" />
    <glyph glyph-name="zero" unicode="0" horiz-adv-x="1253" 
d="M104 682q0 125 29 251t92.5 226.5t161.5 163.5t240 63q139 0 238.5 -63t162 -163.5t92 -226.5t29.5 -251t-29.5 -251t-92 -227.5t-162 -165t-238.5 -63.5q-141 0 -239.5 63.5t-162 165t-92.5 227.5t-29 251zM279 682q0 -102 17 -201.5t58 -178.5t108 -127t165 -48
t164.5 48t107.5 127t58.5 178.5t17.5 201.5t-17.5 201.5t-58.5 177.5t-107.5 126t-164.5 48t-165 -48t-108 -126t-58 -177.5t-17 -201.5z" />
    <glyph glyph-name="one" unicode="1" horiz-adv-x="694" 
d="M43 1014l342 352h150v-1366h-170v1143l-220 -234z" />
    <glyph glyph-name="two" unicode="2" horiz-adv-x="1204" 
d="M109 1171q78 104 203.5 159.5t271.5 55.5q86 0 168 -24.5t146.5 -73.5t104 -125t39.5 -178q0 -104 -50 -205.5t-139 -203t-210 -207t-264 -217.5h670v-152h-938v137q184 143 325.5 261t238.5 219.5t146 190.5t49 177q0 66 -24.5 113t-65.5 77.5t-92 45t-104 14.5
q-123 0 -217.5 -47t-153.5 -125z" />
    <glyph glyph-name="three" unicode="3" horiz-adv-x="1140" 
d="M59 201l101 106q59 -80 158.5 -130t222.5 -50q150 0 234.5 69.5t84.5 186.5q0 63 -24.5 109.5t-69.5 75t-107.5 43t-138.5 14.5h-84t-57 -2v155q16 -2 58 -2h83q63 0 121.5 13.5t101.5 41t69 69.5t26 101q0 57 -25 100.5t-65.5 73t-97 45t-118.5 15.5q-113 0 -198.5 -42
t-161.5 -124l-94 107q74 92 191.5 151t277.5 59q98 0 182 -24.5t146.5 -70.5t97.5 -113.5t35 -153.5q0 -74 -28 -130t-71 -95t-95 -61.5t-99 -30.5q45 -4 100 -27t103.5 -65t80 -103t31.5 -143q0 -86 -33.5 -158t-96 -124t-152.5 -82t-203 -30q-174 0 -298 67t-188 159z" />
    <glyph glyph-name="four" unicode="4" horiz-adv-x="1142" 
d="M66 346v141l585 879h234v-870h192v-150h-192v-346h-170v346h-649zM236 496h479v712z" />
    <glyph glyph-name="five" unicode="5" horiz-adv-x="1208" 
d="M135 195l105 114q68 -88 160 -135t216 -47q70 0 128.5 22.5t99.5 61.5t64.5 93t23.5 116q0 68 -23.5 122t-64.5 93t-98.5 59.5t-127.5 20.5q-90 0 -167.5 -31t-147.5 -96l-125 43v735h836v-152h-666v-475q51 49 133 86t187 37q86 0 164.5 -28.5t139 -84t96.5 -136.5
t36 -187q0 -104 -38 -187t-103.5 -141.5t-155 -90.5t-191.5 -32q-174 0 -288.5 58.5t-192.5 161.5z" />
    <glyph glyph-name="six" unicode="6" horiz-adv-x="1210" 
d="M104 682q0 137 33 265t101.5 225.5t173 155.5t250.5 58q131 0 222 -45t154 -118l-86 -127q-53 61 -118.5 100t-171.5 39q-100 0 -173 -46t-120 -122t-70 -172t-23 -197v-53q23 35 61 73t89 68.5t111.5 51t126.5 20.5q92 0 173 -27.5t142 -82t96 -136.5t35 -190
q0 -88 -33 -169t-94 -142.5t-150 -98.5t-200 -37q-143 0 -243.5 58.5t-164 156t-92.5 225.5t-29 267zM283 508q6 -63 26.5 -131t60.5 -123t102.5 -91t152.5 -36q80 0 138 26.5t97 68.5t58.5 93.5t19.5 100.5q0 76 -24.5 131t-66.5 92t-99.5 54.5t-122.5 17.5
q-104 0 -195.5 -56.5t-146.5 -146.5z" />
    <glyph glyph-name="seven" unicode="7" horiz-adv-x="1054" 
d="M63 1214v152h932v-117l-559 -1249h-188l551 1214h-736z" />
    <glyph glyph-name="eight" unicode="8" horiz-adv-x="1191" 
d="M106 346q0 68 27 125t72 103.5t104.5 79t122.5 51.5q-59 16 -113.5 44.5t-96.5 68.5t-67.5 93.5t-25.5 120.5q0 92 41 158.5t107.5 111t149.5 64.5t169 20q84 0 168 -20t150.5 -64.5t108.5 -111t42 -158.5q0 -68 -25.5 -121t-67.5 -93t-97.5 -68.5t-114.5 -44.5
q63 -18 122.5 -51t104.5 -79.5t71.5 -103.5t26.5 -125q0 -86 -38.5 -155.5t-105.5 -116.5t-156 -73t-189 -26q-102 0 -191.5 25t-155 73t-104.5 116.5t-39 156.5zM279 365q0 -55 25.5 -99.5t69.5 -75t101.5 -47t120.5 -16.5t120.5 16.5t101.5 47t69.5 74.5t25.5 100
q0 68 -37.5 115.5t-89 79.5t-105.5 48.5t-85 20.5q-31 -4 -85 -20.5t-105.5 -48.5t-89 -80t-37.5 -115zM301 1010q0 -61 35 -104.5t82 -71t97 -41t81 -19.5q31 6 82 19.5t98 41t82 70.5t35 105q0 53 -23.5 95t-63.5 70.5t-94.5 44t-115.5 15.5t-115.5 -15.5t-94.5 -44
t-62.5 -70.5t-22.5 -95z" />
    <glyph glyph-name="nine" unicode="9" horiz-adv-x="1210" 
d="M100 942q0 88 33 169t94.5 142.5t150.5 98.5t202 37q143 0 243.5 -58.5t164 -156t92 -225.5t28.5 -267t-33 -266t-101.5 -224.5t-174 -156t-248.5 -58.5q-131 0 -222 46.5t-157 117.5l86 127q53 -61 119.5 -100t173.5 -39q104 0 177 47t119 124t67.5 172t21.5 194v25.5
t-2 27.5q-23 -35 -60.5 -73t-89 -68.5t-111 -51t-124.5 -20.5q-92 0 -174 27.5t-142.5 82t-96.5 136.5t-36 190zM272 948q0 -76 25 -131t68 -92t100 -54.5t123 -17.5q102 0 194 56.5t148 148.5q-6 63 -27.5 130t-61.5 122t-103.5 91t-151.5 36q-78 0 -137.5 -26.5
t-98.5 -68.5t-58.5 -93.5t-19.5 -100.5z" />
    <glyph glyph-name="colon" unicode=":" horiz-adv-x="460" 
d="M123 92q0 47 32.5 80t80.5 33q47 0 79.5 -33t32.5 -80t-32.5 -79.5t-79.5 -32.5t-80 32.5t-33 79.5zM123 891q0 47 32.5 80t80.5 33q47 0 79.5 -33t32.5 -80q0 -45 -32.5 -79t-79.5 -34t-80 34t-33 79z" />
    <glyph glyph-name="semicolon" unicode=";" horiz-adv-x="471" 
d="M117 -195q49 33 88 87.5t45 105.5q-8 -4 -29 -4q-41 0 -69.5 28.5t-28.5 75.5q0 45 30.5 78t77.5 33q53 0 91 -41t38 -115q0 -96 -47 -177t-118 -132zM123 891q0 47 32.5 80t80.5 33q47 0 79.5 -33t32.5 -80q0 -45 -32.5 -79t-79.5 -34t-80 34t-33 79z" />
    <glyph glyph-name="less" unicode="&#x3c;" horiz-adv-x="1021" 
d="M59 631v108l904 449v-129l-773 -375l773 -371v-129z" />
    <glyph glyph-name="equal" unicode="=" horiz-adv-x="1021" 
d="M59 432v109h904v-109h-904zM59 827v109h904v-109h-904z" />
    <glyph glyph-name="greater" unicode="&#x3e;" horiz-adv-x="1021" 
d="M59 184v129l772 371l-772 375v129l904 -449v-108z" />
    <glyph glyph-name="question" unicode="?" horiz-adv-x="946" 
d="M37 1178q74 98 185.5 153t258.5 55q94 0 168 -24.5t126 -67.5t80 -101t28 -124q0 -78 -30 -133t-73 -98t-95 -78t-95 -69t-73 -71.5t-30 -87.5q0 -25 13.5 -52t40.5 -46l-125 -55q-41 35 -59.5 78t-18.5 90q0 66 27.5 113t68.5 83.5t88 68.5t88 65.5t69 72.5t28 94
q0 78 -59.5 134.5t-180.5 56.5q-117 0 -193.5 -45t-134.5 -123zM346 92q0 47 33 80t80 33t79.5 -33t32.5 -80t-32.5 -79.5t-79.5 -32.5t-80 32.5t-33 79.5z" />
    <glyph glyph-name="at" unicode="@" horiz-adv-x="1603" 
d="M72 500q0 166 67.5 312t179 257t259 174.5t307.5 63.5q145 0 264 -51.5t204 -139.5t131 -205.5t46 -253.5q0 -121 -31 -211t-82 -150t-114.5 -91t-126.5 -31q-86 0 -134.5 50t-52.5 116v14q-53 -78 -140 -129t-185 -51q-143 0 -228.5 92t-85.5 242q0 106 41 200.5
t108.5 164t154.5 109.5t177 40q100 0 167 -47t96 -113l26 127h140l-117 -555q-2 -10 -3 -21.5t-1 -21.5q0 -51 27.5 -78.5t68.5 -27.5q31 0 68.5 18.5t72.5 61.5t58.5 114.5t23.5 177.5q0 125 -42 231.5t-117.5 184.5t-182 121t-237.5 43q-150 0 -283 -60.5t-233.5 -162
t-160 -234.5t-59.5 -276q0 -123 44 -228.5t122 -184.5t185.5 -123t234.5 -44q111 0 204 31t177 84l37 -53q-96 -61 -203.5 -95t-222.5 -34q-139 0 -258 49t-206 136t-136 205t-49 253zM498 516q0 -98 54.5 -162.5t154.5 -64.5q51 0 97 16.5t84 43t68.5 59t53.5 65.5l59 285
q-8 25 -25.5 50.5t-43 48t-61.5 36.5t-81 14q-78 0 -143.5 -32.5t-113.5 -88t-75.5 -126t-27.5 -144.5z" />
    <glyph glyph-name="A" unicode="A" horiz-adv-x="1347" 
d="M18 0l551 1366h211l549 -1366h-194l-121 305h-680l-121 -305h-195zM385 455h580l-291 737z" />
    <glyph glyph-name="B" unicode="B" horiz-adv-x="1288" 
d="M160 0v1366h608q88 0 159.5 -25.5t121 -71.5t76 -110.5t26.5 -140.5q0 -66 -19.5 -119t-53.5 -93t-77 -65.5t-90 -35.5q55 -8 103.5 -39t84.5 -76t57.5 -102.5t21.5 -118.5q0 -82 -27 -149.5t-78 -117t-123.5 -76t-167.5 -26.5h-622zM330 152h420q119 0 185 62t66 173
q0 47 -16 90t-48 75t-79 51.5t-108 19.5h-420v-471zM330 774h409q117 0 176.5 62.5t59.5 156.5q0 92 -59.5 156.5t-176.5 64.5h-409v-440z" />
    <glyph glyph-name="C" unicode="C" horiz-adv-x="1384" 
d="M104 682q0 158 54.5 288t149.5 223t223 144.5t276 51.5q182 0 309 -77t209 -194l-141 -80q-59 88 -159.5 143.5t-217.5 55.5q-113 0 -209 -41t-167 -113.5t-110.5 -175t-39.5 -225.5q0 -121 39.5 -223.5t110.5 -176t167 -114.5t209 -41q117 0 217 56.5t160 142.5l143 -78
q-86 -119 -212 -196t-308 -77q-147 0 -275.5 51.5t-223.5 144.5t-149.5 223t-54.5 288z" />
    <glyph glyph-name="D" unicode="D" horiz-adv-x="1433" 
d="M160 0v1366h467q160 0 288.5 -52t221 -144.5t141.5 -217.5t49 -270t-49 -270t-141.5 -216.5t-221.5 -143.5t-288 -52h-467zM330 152h297q125 0 222 42t164.5 113.5t102.5 167.5t35 207t-35 208t-101.5 168.5t-163.5 113.5t-224 42h-297v-1062z" />
    <glyph glyph-name="E" unicode="E" horiz-adv-x="1165" 
d="M160 0v1366h895v-152h-725v-440h710v-151h-710v-471h725v-152h-895z" />
    <glyph glyph-name="F" unicode="F" horiz-adv-x="1128" 
d="M160 0v1366h895v-152h-725v-440h710v-151h-710v-623h-170z" />
    <glyph glyph-name="G" unicode="G" horiz-adv-x="1460" 
d="M104 682q0 160 55.5 290t151 223t223.5 143.5t273 50.5q184 0 312 -72t218 -182l-135 -86q-66 84 -169 136t-226 52q-113 0 -209 -41t-167 -113.5t-110.5 -175t-39.5 -225.5q0 -121 39.5 -223.5t110.5 -176t167 -114.5t209 -41q104 0 185 35t137.5 93t90 135t46.5 161
h-561v151h745q0 -160 -43 -294t-126 -231t-205.5 -150.5t-280.5 -53.5q-141 0 -267.5 51.5t-219.5 144.5t-148.5 223t-55.5 290z" />
    <glyph glyph-name="H" unicode="H" horiz-adv-x="1458" 
d="M160 0v1366h170v-588h798v588h170v-1366h-170v627h-798v-627h-170z" />
    <glyph glyph-name="I" unicode="I" horiz-adv-x="489" 
d="M160 0v1366h170v-1366h-170z" />
    <glyph glyph-name="J" unicode="J" horiz-adv-x="972" 
d="M23 133l90 129q43 -53 104.5 -94t151.5 -41q127 0 200.5 79t73.5 208v952h170v-954q0 -111 -34 -193t-92 -136t-137 -81t-171 -27q-109 0 -197 37t-159 121z" />
    <glyph glyph-name="K" unicode="K" horiz-adv-x="1230" 
d="M160 0v1366h170v-704l604 704h213l-569 -647l620 -719h-213l-518 614l-137 -155v-459h-170z" />
    <glyph glyph-name="L" unicode="L" horiz-adv-x="1009" 
d="M137 0v1366h170v-1214h635v-152h-805z" />
    <glyph glyph-name="M" unicode="M" horiz-adv-x="1656" 
d="M160 0v1366h243l426 -1053l424 1053h244v-1366h-170v1149l-463 -1149h-69l-465 1149v-1149h-170z" />
    <glyph glyph-name="N" unicode="N" horiz-adv-x="1449" 
d="M160 0v1366h174l786 -1067v1067h170v-1366h-164l-796 1090v-1090h-170z" />
    <glyph glyph-name="O" unicode="O" horiz-adv-x="1566" 
d="M104 682q0 152 49.5 281t138.5 224t214 148.5t276 53.5q152 0 277 -53.5t215 -148.5t139 -224t49 -281t-49 -281t-139 -224t-215 -148.5t-277 -53.5t-276.5 53.5t-213.5 148.5t-138.5 224t-49.5 281zM281 682q0 -119 34.5 -220.5t100 -176t158.5 -116.5t208 -42t208 42
t158.5 116.5t101.5 176t36 220.5t-36 221.5t-101.5 176t-158.5 115.5t-208 42t-208 -42t-158.5 -115.5t-100 -176t-34.5 -221.5z" />
    <glyph glyph-name="P" unicode="P" horiz-adv-x="1202" 
d="M160 0v1366h549q102 0 182 -33t134 -89t83 -131t29 -159t-29 -158.5t-83 -131t-134 -89t-182 -32.5h-379v-543h-170zM330 694h358q123 0 198 72t75 188q0 117 -75 188.5t-198 71.5h-358v-520z" />
    <glyph glyph-name="Q" unicode="Q" horiz-adv-x="1566" 
d="M104 682q0 152 49.5 281t138.5 224t214 148.5t276 53.5q152 0 277 -53.5t215 -148.5t139 -224t49 -281q0 -154 -49 -282t-139 -224l129 -137l-117 -102l-133 141q-78 -49 -171.5 -76t-199.5 -27q-152 0 -276.5 53.5t-213.5 148.5t-138.5 224t-49.5 281zM281 682
q0 -119 34.5 -220.5t100 -176t158.5 -116.5t208 -42q145 0 260 70l-194 211l119 100l192 -209q59 74 93 171t34 212q0 119 -36 221.5t-101.5 176t-158.5 115.5t-208 42t-208 -42t-158.5 -115.5t-100 -176t-34.5 -221.5z" />
    <glyph glyph-name="R" unicode="R" horiz-adv-x="1247" 
d="M160 0v1366h549q94 0 173 -28.5t136 -83t89 -130t32 -170.5q0 -92 -30 -163.5t-79 -120.5t-113.5 -78t-134.5 -35l369 -557h-201l-346 543h-274v-543h-170zM330 692h358q123 0 199 73t76 189q0 117 -76 188.5t-199 71.5h-358v-522z" />
    <glyph glyph-name="S" unicode="S" horiz-adv-x="1200" 
d="M78 193l102 131q33 -39 77 -74t98.5 -62.5t118 -44t134.5 -16.5q92 0 153.5 22.5t98.5 56.5t53.5 76t16.5 83q0 66 -35 108.5t-91 71t-129 49t-149.5 41t-149.5 47.5t-129.5 69t-91 103t-34.5 154q0 84 36 154.5t98 120.5t148 78t189 28q156 0 276.5 -50.5t206.5 -142.5
l-102 -125q-78 86 -180.5 125t-214.5 39q-123 0 -202 -59.5t-79 -157.5q0 -57 35 -94t91 -63.5t129 -46t149.5 -41t149.5 -50.5t129 -74t91 -110.5t35 -161.5q0 -74 -26.5 -145.5t-87 -129t-157 -92.5t-233.5 -35q-178 0 -308 60.5t-216 157.5z" />
    <glyph glyph-name="T" unicode="T" horiz-adv-x="1167" 
d="M66 1214v152h1036v-152h-434v-1214h-170v1214h-432z" />
    <glyph glyph-name="U" unicode="U" horiz-adv-x="1435" 
d="M160 530v836h172v-831q0 -188 97 -298t288 -110q190 0 288.5 109.5t98.5 298.5v831h172v-834q0 -127 -35 -230t-105.5 -176t-175 -112t-243.5 -39t-242.5 40t-174.5 112t-105.5 174t-34.5 229z" />
    <glyph glyph-name="V" unicode="V" horiz-adv-x="1347" 
d="M18 1366h195l461 -1180l461 1180h194l-549 -1366h-211z" />
    <glyph glyph-name="W" unicode="W" horiz-adv-x="1808" 
d="M29 1366h188l303 -1139l314 1139h141l313 -1139l301 1139h191l-391 -1366h-185l-301 1102l-301 -1102h-184z" />
    <glyph glyph-name="X" unicode="X" horiz-adv-x="1335" 
d="M25 0l532 700l-502 666h207l406 -545l403 545h209l-502 -664l533 -702h-207l-436 582l-437 -582h-206z" />
    <glyph glyph-name="Y" unicode="Y" horiz-adv-x="1282" 
d="M18 1366h199l424 -635l424 635h199l-537 -788v-578h-170v578z" />
    <glyph glyph-name="Z" unicode="Z" horiz-adv-x="1198" 
d="M98 0v141l768 1073h-768v152h987v-141l-770 -1073h785v-152h-1002z" />
    <glyph glyph-name="bracketleft" unicode="[" horiz-adv-x="497" 
d="M82 -389v1778h381v-113h-260v-1552h260v-113h-381z" />
    <glyph glyph-name="backslash" unicode="\" horiz-adv-x="606" 
d="M0 1407h121l485 -1448h-121z" />
    <glyph glyph-name="bracketright" unicode="]" horiz-adv-x="497" 
d="M35 -276h262v1552h-262v113h383v-1778h-383v113z" />
    <glyph glyph-name="asciicircum" unicode="^" horiz-adv-x="884" 
d="M39 682l346 684h117l344 -684h-127l-277 571l-276 -571h-127z" />
    <glyph glyph-name="underscore" unicode="_" horiz-adv-x="1155" 
d="M-6 -82h1167v-113h-1167v113z" />
    <glyph glyph-name="grave" unicode="`" horiz-adv-x="462" 
d="M0 1434h160l303 -295h-117z" />
    <glyph glyph-name="a" unicode="a" horiz-adv-x="1177" 
d="M96 494q0 119 33 215t91.5 163.5t139 104.5t177.5 37q100 0 187 -46t146 -128v149h154v-989h-154v147q-55 -76 -142 -124t-191 -48q-96 0 -177 36t-139.5 102.5t-91.5 163t-33 217.5zM256 494q0 -82 21.5 -152t62.5 -121t100 -79.5t135 -28.5q92 0 173 46t122 111v447
q-41 66 -121.5 113t-173.5 47q-76 0 -135 -29t-100 -80t-62.5 -122t-21.5 -152z" />
    <glyph glyph-name="b" unicode="b" horiz-adv-x="1177" 
d="M154 0v1366h153v-526q59 82 146.5 128t187.5 46q98 0 179 -37t139.5 -104.5t90 -164t31.5 -214.5q0 -121 -32.5 -217.5t-91 -163t-139.5 -102.5t-177 -36q-104 0 -191.5 48.5t-142.5 123.5v-147h-153zM307 268q20 -33 52 -60.5t71 -49t83 -33.5t91 -12q74 0 133.5 28.5
t100.5 79.5t62.5 121t21.5 152t-21.5 152.5t-62.5 121.5t-100.5 80t-133.5 29q-47 0 -91 -13.5t-83 -35t-70.5 -50t-52.5 -61.5v-449z" />
    <glyph glyph-name="c" unicode="c" horiz-adv-x="1015" 
d="M96 496q0 111 36 205t100.5 163.5t155.5 109.5t202 40q135 0 220 -49.5t142 -122.5l-102 -92q-49 68 -111.5 97.5t-140.5 29.5t-141.5 -29t-108.5 -80t-68.5 -120.5t-23.5 -151.5t23.5 -153t68.5 -122t108.5 -79.5t141.5 -28.5q156 0 252 129l102 -95q-57 -74 -142 -123
t-220 -49q-111 0 -202 40t-155.5 111t-100.5 165t-36 205z" />
    <glyph glyph-name="d" unicode="d" horiz-adv-x="1177" 
d="M96 494q0 119 33 215t91.5 163.5t139 104.5t177.5 37q100 0 187 -46t146 -128v526h154v-1366h-154v147q-55 -76 -142 -124t-191 -48q-96 0 -177 36t-139.5 102.5t-91.5 163t-33 217.5zM256 494q0 -82 21.5 -152t62.5 -121t100 -79.5t135 -28.5q92 0 173 46t122 111v447
q-41 66 -121.5 113t-173.5 47q-76 0 -135 -29t-100 -80t-62.5 -122t-21.5 -152z" />
    <glyph glyph-name="e" unicode="e" horiz-adv-x="1153" 
d="M96 496q0 106 37 201.5t101.5 165t153.5 110.5t196 41q113 0 200.5 -41t149 -113t93.5 -169t32 -208v-39h-799q4 -70 30.5 -132t72 -108t109 -74t142.5 -28q86 0 167 33t141 94l73 -100q-76 -74 -174 -114t-219 -40q-111 0 -204 38t-159.5 106.5t-104.5 164t-38 212.5z
M258 559h649q0 55 -19.5 112.5t-59.5 105.5t-101 79t-145 31q-80 0 -139.5 -30t-99.5 -78t-61.5 -106.5t-23.5 -113.5z" />
    <glyph glyph-name="f" unicode="f" horiz-adv-x="581" 
d="M33 854v135h164v76q0 154 78.5 237.5t207.5 83.5q92 0 152 -32l-39 -117q-18 10 -38.5 16.5t-49.5 6.5q-158 0 -158 -195v-76h201v-135h-201v-854h-153v854h-164z" />
    <glyph glyph-name="g" unicode="g" horiz-adv-x="1177" 
d="M96 500q0 119 32 214t90 161.5t139 102.5t180 36q100 0 187 -46t146 -128v149h154v-975q0 -117 -40 -196.5t-106.5 -128.5t-151.5 -69.5t-175 -20.5q-125 0 -218 30.5t-181 118.5l77 111q61 -72 138 -102.5t184 -30.5q61 0 118.5 15t102.5 50t71.5 90.5t26.5 132.5v150
q-55 -76 -142 -126t-191 -50q-96 0 -177 34.5t-139.5 101t-91.5 161t-33 215.5zM256 500q0 -82 21.5 -150.5t62.5 -119t100 -78t135 -27.5q45 0 89.5 13.5t83 35t70.5 50t52 61.5v434q-20 31 -52 59.5t-70.5 50t-82.5 35t-90 13.5q-76 0 -135 -28t-100 -78t-62.5 -119.5
t-21.5 -151.5z" />
    <glyph glyph-name="h" unicode="h" horiz-adv-x="1130" 
d="M156 0v1366h153v-520q25 31 63 61.5t83 54t98 38t109 14.5q156 0 235.5 -77t79.5 -239v-698h-154v651q0 66 -16 110t-45 69.5t-70 36t-92 10.5q-45 0 -88 -12.5t-81 -34t-69.5 -49t-52.5 -58.5v-723h-153z" />
    <glyph glyph-name="i" unicode="i" horiz-adv-x="460" 
d="M127 1233q0 43 30.5 73.5t73.5 30.5t73 -30.5t30 -73.5t-30 -73t-73 -30t-73.5 30t-30.5 73zM154 0v989h153v-989h-153z" />
    <glyph glyph-name="j" unicode="j" horiz-adv-x="460" 
d="M-201 -328l54 115q27 -27 60.5 -44t80.5 -17q70 0 115 42t45 136v1085h153v-1085q0 -147 -75 -226t-218 -79q-76 0 -122 18t-93 55zM127 1233q0 43 30.5 73.5t73.5 30.5t73 -30.5t30 -73.5t-30 -73t-73 -30t-73.5 30t-30.5 73z" />
    <glyph glyph-name="k" unicode="k" horiz-adv-x="1052" 
d="M154 0v1366h153v-903l520 526h195l-438 -448l440 -541h-197l-354 444l-166 -161v-283h-153z" />
    <glyph glyph-name="l" unicode="l" horiz-adv-x="550" 
d="M154 207v1159h153v-1126q0 -55 24.5 -91t76.5 -36q33 0 60.5 13t41.5 30l47 -117q-31 -29 -73.5 -46.5t-110.5 -17.5q-111 0 -165 60.5t-54 171.5z" />
    <glyph glyph-name="m" unicode="m" horiz-adv-x="1654" 
d="M154 0v989h153v-143q16 25 48 53.5t74 54t93 43t107 17.5q113 0 177 -53.5t87 -131.5q20 33 55 67t78 59.5t94 42t105 16.5q135 0 205.5 -75t70.5 -224v-715h-153v672q0 94 -42 149.5t-141 55.5q-39 0 -76.5 -12.5t-72.5 -34t-64.5 -48t-48.5 -57.5v-725h-153v672
q0 94 -42 149.5t-141 55.5q-76 0 -147.5 -47.5t-112.5 -106.5v-723h-153z" />
    <glyph glyph-name="n" unicode="n" horiz-adv-x="1130" 
d="M154 0v989h153v-143q27 31 64 61.5t83 54t99 38t109 14.5q154 0 233.5 -79t79.5 -241v-694h-152v647q0 131 -61.5 180.5t-161.5 49.5q-92 0 -170 -47.5t-123 -106.5v-723h-153z" />
    <glyph glyph-name="o" unicode="o" 
d="M96 496q0 106 34 201.5t97.5 165t154.5 110.5t204 41t204 -41t154.5 -110.5t97 -165t33.5 -201.5q0 -109 -33.5 -203t-97 -165t-154.5 -112t-204 -41t-204 41t-154.5 112t-97.5 165t-34 203zM258 496q0 -76 21.5 -145.5t63.5 -122t102.5 -84t140.5 -31.5t140 31.5t102 84
t63.5 122t21.5 145.5t-21.5 144.5t-63.5 120.5t-102 84t-140 32t-140.5 -32t-102.5 -84t-63.5 -121t-21.5 -144z" />
    <glyph glyph-name="p" unicode="p" 
d="M154 -377v1366h153v-147q53 76 141.5 124t192.5 48q98 0 179 -36t139.5 -102.5t90 -163t31.5 -216.5q0 -121 -31.5 -217.5t-90 -164t-139.5 -103.5t-179 -36q-102 0 -187 46.5t-147 128.5v-527h-153zM307 272q41 -66 122 -112.5t173 -46.5q74 0 133.5 28.5t100.5 79.5
t62.5 122t21.5 153t-21.5 151.5t-62.5 120.5t-100.5 80t-133.5 29q-92 0 -173 -46.5t-122 -111.5v-447z" />
    <glyph glyph-name="q" unicode="q" 
d="M90 496q0 121 32 217t90 162.5t139 102.5t179 36q104 0 192.5 -48t141.5 -124v147h154v-1366h-154v527q-61 -82 -146.5 -128.5t-187.5 -46.5q-98 0 -179 36t-139 103.5t-90 164t-32 217.5zM252 496q0 -82 21.5 -153t62.5 -122t100 -79.5t133 -28.5q92 0 173 47t122 112
v447q-41 66 -121.5 112t-173.5 46q-74 0 -133 -29t-100 -80t-62.5 -120.5t-21.5 -151.5z" />
    <glyph glyph-name="r" unicode="r" horiz-adv-x="675" 
d="M154 0v989h153v-158q59 78 143.5 129.5t186.5 51.5v-158q-14 2 -28.5 3t-30.5 1q-37 0 -77 -13.5t-78 -36t-68.5 -50t-47.5 -58.5v-700h-153z" />
    <glyph glyph-name="s" unicode="s" horiz-adv-x="952" 
d="M70 131l77 111q49 -57 136.5 -99.5t189.5 -42.5q115 0 175.5 48.5t60.5 121.5q0 59 -45.5 91t-114 52.5t-147 38t-147.5 49t-114 84t-45 144.5q0 57 24.5 109.5t71 91.5t115 61.5t156.5 22.5q129 0 218 -42t148 -102l-71 -106q-45 53 -121 89t-174 36q-102 0 -160.5 -45
t-58.5 -111q0 -53 45 -81.5t113.5 -47t147.5 -37t147.5 -51.5t113.5 -89t45 -153q0 -61 -24.5 -116.5t-73.5 -95t-122 -63.5t-167 -24q-250 0 -399 156z" />
    <glyph glyph-name="t" unicode="t" horiz-adv-x="602" 
d="M20 854v135h164v271h156v-271h201v-135h-201v-614q0 -55 24.5 -91t73.5 -36q35 0 61.5 13t43.5 30l45 -117q-29 -29 -72.5 -46.5t-109.5 -17.5q-111 0 -166.5 60.5t-55.5 171.5v647h-164z" />
    <glyph glyph-name="u" unicode="u" horiz-adv-x="1128" 
d="M154 291v698h153v-651q0 -66 15.5 -109t45 -69.5t70.5 -36.5t92 -10q45 0 88.5 12t81 32.5t68.5 47t53 57.5v727h154v-989h-154v139q-57 -66 -149 -115t-203 -49q-315 0 -315 316z" />
    <glyph glyph-name="v" unicode="v" horiz-adv-x="1003" 
d="M6 989h168l328 -811l329 811h166l-411 -989h-168z" />
    <glyph glyph-name="w" unicode="w" horiz-adv-x="1503" 
d="M25 989h159l242 -788l260 788h133l258 -788l242 788h162l-316 -989h-155l-258 795l-258 -795h-154z" />
    <glyph glyph-name="x" unicode="x" horiz-adv-x="997" 
d="M25 0l378 508l-358 481h178l275 -377l276 377h176l-358 -481l381 -508h-176l-299 406l-297 -406h-176z" />
    <glyph glyph-name="y" unicode="y" horiz-adv-x="1128" 
d="M143 -252l78 111q55 -70 133 -101.5t168 -31.5q141 0 220 75.5t79 210.5v148q-57 -66 -149 -115t-203 -49q-156 0 -235.5 77t-79.5 238v678h153v-631q0 -66 15.5 -109.5t45 -69t70.5 -37t92 -11.5q90 0 169 45t122 105v708h154v-977q0 -104 -37 -182t-98.5 -129
t-143.5 -76.5t-174 -25.5q-123 0 -213 36.5t-166 112.5z" />
    <glyph glyph-name="z" unicode="z" horiz-adv-x="966" 
d="M106 0v121l545 733h-545v135h746v-117l-549 -737h557v-135h-754z" />
    <glyph glyph-name="braceleft" unicode="{" horiz-adv-x="534" 
d="M10 449v102q55 0 82 42t27 99v420q0 63 21.5 114.5t57 87.5t81 55.5t94.5 19.5h127v-113h-127q-53 0 -94 -45t-41 -117v-434q0 -66 -20.5 -112t-72.5 -68q51 -23 72 -69t21 -112v-432q0 -72 40.5 -117.5t94.5 -45.5h127v-113h-127q-49 0 -94.5 19.5t-81 55t-57 86
t-21.5 113.5v422q0 57 -26.5 99.5t-82.5 42.5z" />
    <glyph glyph-name="bar" unicode="|" horiz-adv-x="432" 
d="M160 -41v1448h112v-1448h-112z" />
    <glyph glyph-name="braceright" unicode="}" horiz-adv-x="534" 
d="M35 -276h125q55 0 96 46t41 117v432q0 66 20.5 112t71.5 69q-51 23 -71.5 68.5t-20.5 111.5v434q0 72 -41 117t-96 45h-125v113h125q49 0 95 -19.5t82 -55.5t57.5 -87t21.5 -115v-420q0 -57 26.5 -99t79.5 -42v-102q-53 0 -79.5 -42t-26.5 -100v-422q0 -63 -21.5 -113.5
t-57.5 -86t-82 -55t-95 -19.5h-125v113z" />
    <glyph glyph-name="asciitilde" unicode="~" horiz-adv-x="1030" 
d="M55 879q8 92 25.5 180t49.5 155.5t82 108.5t126 41q63 0 104 -28.5t67 -72.5t43 -94.5t34.5 -94.5t41 -72.5t64.5 -28.5q37 0 64.5 28.5t48 81t34 124t21.5 159.5l113 -12q-8 -92 -24.5 -180.5t-48.5 -157t-82 -109.5t-126 -41q-63 0 -104 29t-66.5 72t-43 94t-35 94
t-42 71.5t-63.5 28.5q-37 0 -65.5 -28.5t-48 -80.5t-33 -124t-21.5 -158z" />
    <glyph glyph-name="uni00A0" unicode="&#xa0;" horiz-adv-x="530" 
 />
    <glyph glyph-name="exclamdown" unicode="&#xa1;" horiz-adv-x="471" 
d="M123 897q0 47 32.5 80t80.5 33q47 0 78.5 -33t31.5 -80q0 -45 -31.5 -78t-78.5 -33t-80 33t-33 78zM139 -377l31 983h129l33 -983h-193z" />
    <glyph glyph-name="cent" unicode="&#xa2;" horiz-adv-x="1015" 
d="M96 496q0 100 30 187t85 154.5t132 112.5t173 58v149h121v-145q115 -10 188.5 -57.5t126.5 -112.5l-102 -92q-43 59 -96.5 88.5t-116.5 35.5v-759q129 12 213 127l102 -95q-53 -68 -126.5 -113.5t-188.5 -56.5v-182h-121v187q-96 12 -173 56t-132 112.5t-85 156.5
t-30 189zM256 496q0 -143 68.5 -244.5t191.5 -130.5v747q-123 -29 -191.5 -130t-68.5 -242z" />
    <glyph glyph-name="sterling" unicode="&#xa3;" horiz-adv-x="1060" 
d="M41 549v110h215q-29 33 -56.5 67t-50 72t-37 84t-14.5 101q0 86 37 160t99.5 128t146.5 84.5t176 30.5q141 0 248.5 -59t165.5 -170l-137 -82q-27 66 -96.5 117t-164.5 51q-59 0 -111 -18.5t-92 -52t-63.5 -82t-23.5 -109.5q0 -55 15 -99t39.5 -82t53.5 -72t55 -69h308
v-110h-250q6 -20 10 -42t4 -46q0 -94 -46 -159.5t-110 -111.5q23 8 50.5 13.5t56.5 5.5q49 0 86 -13.5t70.5 -28.5t68.5 -28.5t78 -13.5q68 0 121 26.5t74 55.5l73 -137q-43 -41 -110.5 -69t-165.5 -28q-70 0 -114 14.5t-81 33t-75.5 33t-96.5 14.5q-53 0 -114.5 -24
t-126.5 -58l-60 129q131 57 201 138t70 173q0 35 -8.5 64.5t-22.5 58.5h-295z" />
    <glyph glyph-name="yen" unicode="&#xa5;" horiz-adv-x="1282" 
d="M18 1366h199l424 -635l424 635h199l-465 -682h440v-106h-512v-220h512v-108h-512v-250h-170v250h-512v108h512v220h-512v106h438z" />
    <glyph glyph-name="brokenbar" unicode="&#xa6;" horiz-adv-x="432" 
d="M160 -41v647h112v-647h-112zM160 760v647h112v-647h-112z" />
    <glyph glyph-name="section" unicode="&#xa7;" horiz-adv-x="958" 
d="M70 -6l77 100q47 -55 129 -100t193 -45q104 0 172 46t68 130q0 63 -45.5 97t-114 55.5t-147 40t-147.5 50t-114 84t-45 144.5q0 53 19.5 96t51.5 75t74 54.5t89 34.5q-106 35 -170 92.5t-64 161.5q0 55 24.5 105.5t72 88t116 60t154.5 22.5q139 0 227 -44t139 -101
l-71 -92q-53 63 -131 93t-158 30q-100 0 -162.5 -44t-62.5 -120q0 -57 45 -87t113.5 -49.5t147.5 -36.5t147.5 -50t113.5 -88.5t45 -151.5q0 -86 -47 -152.5t-141 -107.5q86 -35 137 -92t51 -158q0 -72 -28.5 -128t-80 -94t-122 -58.5t-156.5 -20.5q-76 0 -136.5 13.5
t-107.5 35t-85 51t-70 60.5zM244 610q0 -45 24.5 -74.5t65.5 -50t93 -34t108 -27.5q82 35 126 83t44 120q0 43 -20.5 73.5t-53.5 52t-74 36t-84 24.5q-133 -35 -181 -86t-48 -117z" />
    <glyph glyph-name="dieresis" unicode="&#xa8;" horiz-adv-x="557" 
d="M-29 1237q0 41 28 67.5t69 26.5q39 0 66.5 -26.5t27.5 -67.5q0 -39 -28 -66.5t-66 -27.5q-41 0 -69 27.5t-28 66.5zM395 1237q0 41 28 67.5t66 26.5q41 0 69 -26.5t28 -67.5q0 -39 -28 -66.5t-69 -27.5q-39 0 -66.5 27.5t-27.5 66.5z" />
    <glyph glyph-name="copyright" unicode="&#xa9;" horiz-adv-x="1593" 
d="M90 684q0 147 55.5 275t151.5 224.5t225 152t275 55.5q147 0 275 -55.5t224.5 -152t151.5 -224.5t55 -275q0 -145 -55 -274t-151.5 -225.5t-224.5 -152t-275 -55.5q-145 0 -274.5 55.5t-225.5 152t-151.5 225.5t-55.5 274zM154 684q0 -133 51 -250t138 -204t204 -138
t250 -51t249.5 51t204.5 138t138.5 204t50.5 250t-50.5 250t-138.5 205t-204.5 138t-249.5 50t-250 -50t-204 -138t-138 -205t-51 -250zM375 688q0 94 33.5 173t91 137.5t135.5 91t166 32.5q96 0 171 -34.5t128 -98.5l-51 -51q-41 53 -109 85t-139 32q-70 0 -133.5 -27
t-111.5 -75t-76.5 -116.5t-28.5 -150.5q0 -80 28.5 -148.5t76.5 -117.5t111.5 -77t133.5 -28q74 0 140.5 33t107.5 86l53 -51q-55 -66 -130 -100.5t-171 -34.5q-88 0 -166 33.5t-135.5 93t-91 139.5t-33.5 174z" />
    <glyph glyph-name="ordfeminine" unicode="&#xaa;" horiz-adv-x="774" 
d="M84 864q0 53 20.5 93t52 66t72.5 39t84 13q74 0 128.5 -22.5t93.5 -63.5v113q0 63 -49.5 98t-114.5 35q-53 0 -106.5 -22.5t-94.5 -71.5l-53 78q106 109 268 108q53 0 101.5 -12t85 -39t58 -71t21.5 -105v-432h-116v71q-39 -41 -93.5 -64.5t-128.5 -23.5q-43 0 -84 14.5
t-72.5 41t-52 66.5t-20.5 91zM203 864q0 -61 43.5 -98t111.5 -37q53 0 100.5 20.5t76.5 57.5v115q-29 37 -76 57t-101 20q-68 0 -111.5 -37.5t-43.5 -97.5z" />
    <glyph glyph-name="guillemotleft" unicode="&#xab;" horiz-adv-x="899" 
d="M61 498l328 362h154l-328 -362l328 -369h-154zM356 498l328 362h154l-328 -362l328 -369h-154z" />
    <glyph glyph-name="logicalnot" unicode="&#xac;" horiz-adv-x="1032" 
d="M59 827v109h904v-504h-113v395h-791z" />
    <glyph glyph-name="uni00AD" unicode="&#xad;" horiz-adv-x="614" 
d="M61 428v135h492v-135h-492z" />
    <glyph glyph-name="registered" unicode="&#xae;" horiz-adv-x="1011" 
d="M72 952q0 90 33.5 170t93 138.5t138.5 92t169 33.5t170 -33.5t138 -92t92 -138.5t34 -170t-34 -168.5t-92 -138t-138 -93.5t-170 -34t-169 34t-138.5 93.5t-93 138t-33.5 168.5zM131 952q0 -78 29.5 -145.5t80 -118.5t119 -80.5t146.5 -29.5t146.5 29.5t118.5 80.5
t80 118.5t30 145.5q0 80 -30 147.5t-80 119t-118.5 80t-146.5 28.5t-146.5 -28.5t-119 -80t-80 -119t-29.5 -147.5zM340 702v498h203q63 0 110 -41t47 -110q0 -41 -15 -70t-36.5 -46.5t-43 -24.5t-32.5 -7l134 -199h-82l-129 197h-90v-197h-66zM406 958h137q33 0 61.5 26
t28.5 65q0 41 -29 67.5t-61 26.5h-137v-185z" />
    <glyph glyph-name="macron" unicode="&#xaf;" horiz-adv-x="743" 
d="M0 1210v99h743v-99h-743z" />
    <glyph glyph-name="degree" unicode="&#xb0;" horiz-adv-x="593" 
d="M47 1137q0 51 19.5 97t53.5 80t79 53t98 19q51 0 97 -19t80 -53t53.5 -80t19.5 -97q0 -53 -19.5 -98.5t-53.5 -79t-80 -53t-97 -19.5q-53 0 -98 19.5t-79 53t-53.5 78.5t-19.5 99zM147 1137q0 -63 43 -106.5t107 -43.5q61 0 106.5 43.5t45.5 106.5q0 61 -45.5 106
t-106.5 45q-63 0 -106.5 -45t-43.5 -106z" />
    <glyph glyph-name="plusminus" unicode="&#xb1;" horiz-adv-x="1021" 
d="M59 0v109h904v-109h-904zM59 664v106h394v424h116v-424h394v-106h-394v-437h-116v437h-394z" />
    <glyph glyph-name="uni00B2" unicode="&#xb2;" horiz-adv-x="794" 
d="M100 1565q51 66 133 97.5t168 31.5q55 0 108.5 -14.5t94.5 -44t65.5 -74.5t24.5 -109q0 -61 -30.5 -120.5t-85 -120t-130 -122t-165.5 -126.5h415v-101h-596v92q117 84 205 153t146.5 127t88 109.5t29.5 100.5q0 39 -14 67.5t-38.5 47t-56.5 26.5t-65 8q-76 0 -136 -31.5
t-93 -74.5z" />
    <glyph glyph-name="uni00B3" unicode="&#xb3;" horiz-adv-x="794" 
d="M86 981l68 78q41 -51 103 -81t134 -30q88 0 138.5 39t50.5 105q0 78 -61.5 109.5t-151.5 31.5h-49.5t-32.5 -2v102q10 -2 32.5 -2h49.5q86 0 143 30t57 101q0 66 -54 98.5t-130 32.5q-131 0 -223 -98l-64 72q47 53 121 90t178 37q129 0 211 -58.5t82 -160.5
q0 -45 -17.5 -78t-44 -56.5t-58 -37t-62.5 -17.5q29 -4 63.5 -17.5t64.5 -38t49 -60.5t19 -85q0 -104 -81.5 -170.5t-227.5 -66.5q-111 0 -188.5 39t-118.5 94z" />
    <glyph glyph-name="acute" unicode="&#xb4;" horiz-adv-x="462" 
d="M0 1139l303 295h160l-346 -295h-117z" />
    <glyph glyph-name="uni00B5" unicode="&#xb5;" horiz-adv-x="1128" 
d="M154 -377v1366h153v-651q0 -131 60.5 -180t162.5 -49q45 0 88.5 12t81 33.5t68.5 49t53 58.5v727h154v-989h-154v139q-57 -66 -149 -115t-203 -49q-94 0 -162 29v-381h-153z" />
    <glyph glyph-name="paragraph" unicode="&#xb6;" horiz-adv-x="919" 
d="M55 1014q0 74 28 137t76 111.5t111.5 76t137.5 27.5h366v-1571h-92v1479h-182v-1479h-92v867q-74 0 -137.5 27.5t-111.5 75.5t-76 111.5t-28 137.5z" />
    <glyph glyph-name="periodcentered" unicode="&#xb7;" horiz-adv-x="473" 
d="M123 502q0 45 32.5 77.5t80.5 32.5q47 0 79.5 -32.5t32.5 -77.5q0 -47 -32.5 -80t-79.5 -33t-80 33t-33 80z" />
    <glyph glyph-name="cedilla" unicode="&#xb8;" horiz-adv-x="419" 
d="M0 -330l39 78q39 -31 81 -45t83 -14q51 0 88 22.5t37 63.5q0 33 -18.5 52t-57.5 19q-23 0 -43.5 -9t-34.5 -25l-68 38l64 173h92l-53 -136q16 12 35.5 17.5t40.5 5.5q59 0 97 -37t38 -100q0 -76 -61.5 -120t-151.5 -44q-66 0 -121 18.5t-86 42.5z" />
    <glyph glyph-name="uni00B9" unicode="&#xb9;" horiz-adv-x="481" 
d="M29 1456l221 225h108v-819h-122v660l-136 -142z" />
    <glyph glyph-name="ordmasculine" unicode="&#xba;" horiz-adv-x="829" 
d="M82 989q0 70 23.5 131.5t66.5 107.5t104.5 72.5t137.5 26.5q78 0 139 -26.5t104 -72.5t67 -107.5t24 -131.5t-24 -131t-67 -107t-104 -73t-139 -27q-76 0 -137.5 27t-104.5 73t-66.5 107.5t-23.5 130.5zM205 989q0 -100 54.5 -169.5t154.5 -69.5q102 0 157.5 69.5
t55.5 169.5t-55.5 169t-157.5 69q-100 0 -154.5 -68.5t-54.5 -169.5z" />
    <glyph glyph-name="guillemotright" unicode="&#xbb;" horiz-adv-x="899" 
d="M61 129l328 369l-328 362h154l328 -362l-328 -369h-154zM356 129l328 369l-328 362h154l328 -362l-328 -369h-154z" />
    <glyph glyph-name="onequarter" unicode="&#xbc;" horiz-adv-x="1576" 
d="M29 1141l221 225h108v-819h-122v659l-136 -141zM223 0l873 1366h112l-874 -1366h-111zM860 205v92l354 522h170v-514h117v-100h-117v-205h-122v205h-402zM983 305h279v406z" />
    <glyph glyph-name="onehalf" unicode="&#xbd;" horiz-adv-x="1652" 
d="M29 1141l221 225h108v-819h-122v659l-136 -141zM223 0l873 1366h112l-874 -1366h-111zM958 702q51 66 133.5 97.5t168.5 31.5q55 0 108 -14t94 -44t65.5 -75t24.5 -108q0 -61 -30.5 -120.5t-85 -120t-130 -122t-165.5 -127.5h415v-100h-595v92q117 84 204.5 152.5
t146 127t88.5 109.5t30 101q0 39 -14.5 67.5t-39 47t-56.5 26.5t-65 8q-76 0 -136 -31.5t-93 -74.5z" />
    <glyph glyph-name="threequarters" unicode="&#xbe;" horiz-adv-x="1798" 
d="M86 666l68 77q41 -51 103 -80.5t134 -29.5q88 0 138.5 39t50.5 104q0 78 -61.5 110t-151.5 32h-49.5t-32.5 -3v103q10 -2 32.5 -2h49.5q86 0 143 29.5t57 101.5q0 66 -54 98.5t-130 32.5q-131 0 -223 -98l-64 71q47 53 121 90t178 37q129 0 211 -58t82 -161
q0 -45 -17.5 -77.5t-44 -56.5t-58 -37t-62.5 -17q29 -4 63.5 -17.5t64.5 -38t49 -60.5t19 -85q0 -104 -81.5 -171t-227.5 -67q-111 0 -188.5 39t-118.5 95zM444 0l873 1366h113l-875 -1366h-111zM1083 205v92l355 522h170v-514h116v-100h-116v-205h-123v205h-402zM1206 305
h279v406z" />
    <glyph glyph-name="questiondown" unicode="&#xbf;" horiz-adv-x="806" 
d="M63 -84q0 78 30 133t73 98t95 78t95 69t73 70.5t30 88.5q0 25 -13.5 52t-39.5 46l124 55q41 -35 59.5 -78t18.5 -90q0 -66 -27.5 -112.5t-68.5 -83.5t-88 -69t-88 -65.5t-68.5 -73.5t-27.5 -93q0 -78 59 -134.5t180 -56.5q117 0 194 45t134 121l102 -109
q-74 -98 -185.5 -153t-258.5 -55q-94 0 -168 24.5t-126 67.5t-80 101t-28 124zM375 897q0 47 32.5 80t79.5 33t80 -33t33 -80t-32.5 -80t-80.5 -33q-47 0 -79.5 33t-32.5 80z" />
    <glyph glyph-name="Agrave" unicode="&#xc0;" horiz-adv-x="1347" 
d="M18 0l551 1366h211l549 -1366h-194l-121 305h-680l-121 -305h-195zM348 1786h160l303 -295h-117zM385 455h580l-291 737z" />
    <glyph glyph-name="Aacute" unicode="&#xc1;" horiz-adv-x="1347" 
d="M18 0l551 1366h211l549 -1366h-194l-121 305h-680l-121 -305h-195zM385 455h580l-291 737zM541 1491l303 295h160l-347 -295h-116z" />
    <glyph glyph-name="Acircumflex" unicode="&#xc2;" horiz-adv-x="1347" 
d="M18 0l551 1366h211l549 -1366h-194l-121 305h-680l-121 -305h-195zM385 455h580l-291 737zM406 1491l194 295h148l200 -295h-104l-170 217l-164 -217h-104z" />
    <glyph glyph-name="Atilde" unicode="&#xc3;" horiz-adv-x="1347" 
d="M18 0l551 1366h211l549 -1366h-194l-121 305h-680l-121 -305h-195zM354 1499q0 121 50.5 198t148.5 77q55 0 88 -30t56.5 -64.5t47 -64.5t60.5 -30q41 0 69.5 42t28.5 134h92q0 -121 -50 -197.5t-148 -76.5q-55 0 -88 29.5t-56.5 64.5t-47 64.5t-60.5 29.5q-41 0 -70 -42
t-29 -134h-92zM385 455h580l-291 737z" />
    <glyph glyph-name="Adieresis" unicode="&#xc4;" horiz-adv-x="1347" 
d="M18 0l551 1366h211l549 -1366h-194l-121 305h-680l-121 -305h-195zM369 1583q0 41 27.5 67.5t68.5 26.5q39 0 66.5 -26.5t27.5 -67.5q0 -39 -27.5 -66.5t-66.5 -27.5q-41 0 -68.5 27.5t-27.5 66.5zM385 455h580l-291 737zM793 1583q0 41 27.5 67.5t66.5 26.5
q41 0 68.5 -26.5t27.5 -67.5q0 -39 -27.5 -66.5t-68.5 -27.5q-39 0 -66.5 27.5t-27.5 66.5z" />
    <glyph glyph-name="Aring" unicode="&#xc5;" horiz-adv-x="1347" 
d="M18 0l551 1366h211l549 -1366h-194l-121 305h-680l-121 -305h-195zM385 455h580l-291 737zM473 1620q0 41 16.5 78t44 64.5t64.5 44t78 16.5q84 0 141 -59.5t57 -143.5t-57 -143.5t-141 -59.5q-41 0 -78 16.5t-64.5 44t-44 64.5t-16.5 78zM555 1620q0 -49 35 -85t86 -36
q49 0 84 36t35 85t-35 85t-84 36q-51 0 -86 -36t-35 -85z" />
    <glyph glyph-name="AE" unicode="&#xc6;" horiz-adv-x="1941" 
d="M14 0l852 1366h963v-152h-725v-440h711v-151h-711v-471h725v-152h-895v305h-537l-188 -305h-195zM479 455h455v737z" />
    <glyph glyph-name="Ccedilla" unicode="&#xc7;" horiz-adv-x="1384" 
d="M104 682q0 158 54.5 288t149.5 223t223 144.5t276 51.5q182 0 309 -77t209 -194l-141 -80q-59 88 -159.5 143.5t-217.5 55.5q-113 0 -209 -41t-167 -113.5t-110.5 -175t-39.5 -225.5q0 -121 39.5 -223.5t110.5 -176t167 -114.5t209 -41q117 0 217 56.5t160 142.5l143 -78
q-84 -115 -205 -191.5t-295 -81.5l-30 -79q16 12 35.5 17t39.5 5q59 0 97.5 -37t38.5 -100q0 -76 -61.5 -120t-151.5 -44q-66 0 -121.5 18.5t-85.5 42.5l39 78q39 -31 81 -45t83 -14q51 0 87.5 22.5t36.5 63.5q0 33 -18 52.5t-57 19.5q-23 0 -43.5 -9.5t-34.5 -25.5l-68 39
l43 121q-135 12 -250.5 67t-200.5 147.5t-133.5 216.5t-48.5 271z" />
    <glyph glyph-name="Egrave" unicode="&#xc8;" horiz-adv-x="1165" 
d="M160 0v1366h895v-152h-725v-440h710v-151h-710v-471h725v-152h-895zM281 1786h159l303 -295h-116z" />
    <glyph glyph-name="Eacute" unicode="&#xc9;" horiz-adv-x="1165" 
d="M160 0v1366h895v-152h-725v-440h710v-151h-710v-471h725v-152h-895zM471 1491l303 295h160l-346 -295h-117z" />
    <glyph glyph-name="Ecircumflex" unicode="&#xca;" horiz-adv-x="1165" 
d="M160 0v1366h895v-152h-725v-440h710v-151h-710v-471h725v-152h-895zM334 1491l194 295h148l201 -295h-105l-170 217l-164 -217h-104z" />
    <glyph glyph-name="Edieresis" unicode="&#xcb;" horiz-adv-x="1165" 
d="M160 0v1366h895v-152h-725v-440h710v-151h-710v-471h725v-152h-895zM299 1583q0 41 27.5 67.5t68.5 26.5q39 0 66.5 -26.5t27.5 -67.5q0 -39 -27.5 -66.5t-66.5 -27.5q-41 0 -68.5 27.5t-27.5 66.5zM723 1583q0 41 27.5 67.5t66.5 26.5q41 0 68.5 -26.5t27.5 -67.5
q0 -39 -27.5 -66.5t-68.5 -27.5q-39 0 -66.5 27.5t-27.5 66.5z" />
    <glyph glyph-name="Igrave" unicode="&#xcc;" horiz-adv-x="489" 
d="M-84 1786h160l303 -295h-117zM160 0v1366h170v-1366h-170z" />
    <glyph glyph-name="Iacute" unicode="&#xcd;" horiz-adv-x="489" 
d="M113 1491l303 295h159l-346 -295h-116zM160 0v1366h170v-1366h-170z" />
    <glyph glyph-name="Icircumflex" unicode="&#xce;" horiz-adv-x="489" 
d="M-27 1491l195 295h147l201 -295h-104l-170 217l-164 -217h-105zM160 0v1366h170v-1366h-170z" />
    <glyph glyph-name="Idieresis" unicode="&#xcf;" horiz-adv-x="489" 
d="M-63 1583q0 41 27.5 67.5t68.5 26.5q39 0 66.5 -26.5t27.5 -67.5q0 -39 -27.5 -66.5t-66.5 -27.5q-41 0 -68.5 27.5t-27.5 66.5zM160 0v1366h170v-1366h-170zM360 1583q0 41 28 67.5t67 26.5q41 0 68.5 -26.5t27.5 -67.5q0 -39 -27.5 -66.5t-68.5 -27.5q-39 0 -67 27.5
t-28 66.5z" />
    <glyph glyph-name="Eth" unicode="&#xd0;" horiz-adv-x="1490" 
d="M20 612v125h197v629h467q160 0 289 -52t221 -144.5t141 -217.5t49 -270t-49 -270t-141 -216.5t-221 -143.5t-289 -52h-467v612h-197zM387 152h297q125 0 222.5 42t165 113.5t102 167.5t34.5 207t-34.5 208t-101 168.5t-164 113.5t-224.5 42h-297v-477h346v-125h-346v-460
z" />
    <glyph glyph-name="Ntilde" unicode="&#xd1;" horiz-adv-x="1449" 
d="M160 0v1366h174l786 -1067v1067h170v-1366h-164l-796 1090v-1090h-170zM401 1499q0 121 50.5 198t148.5 77q55 0 88 -30t56.5 -64.5t47 -64.5t60.5 -30q41 0 69.5 42t28.5 134h92q0 -121 -50 -197.5t-148 -76.5q-55 0 -88 29.5t-56.5 64.5t-47 64.5t-60.5 29.5
q-41 0 -69.5 -42t-28.5 -134h-93z" />
    <glyph glyph-name="Ograve" unicode="&#xd2;" horiz-adv-x="1566" 
d="M104 682q0 152 49.5 281t138.5 224t214 148.5t276 53.5q152 0 277 -53.5t215 -148.5t139 -224t49 -281t-49 -281t-139 -224t-215 -148.5t-277 -53.5t-276.5 53.5t-213.5 148.5t-138.5 224t-49.5 281zM281 682q0 -119 34.5 -220.5t100 -176t158.5 -116.5t208 -42t208 42
t158.5 116.5t101.5 176t36 220.5t-36 221.5t-101.5 176t-158.5 115.5t-208 42t-208 -42t-158.5 -115.5t-100 -176t-34.5 -221.5zM463 1786h160l303 -295h-117z" />
    <glyph glyph-name="Oacute" unicode="&#xd3;" horiz-adv-x="1566" 
d="M104 682q0 152 49.5 281t138.5 224t214 148.5t276 53.5q152 0 277 -53.5t215 -148.5t139 -224t49 -281t-49 -281t-139 -224t-215 -148.5t-277 -53.5t-276.5 53.5t-213.5 148.5t-138.5 224t-49.5 281zM281 682q0 -119 34.5 -220.5t100 -176t158.5 -116.5t208 -42t208 42
t158.5 116.5t101.5 176t36 220.5t-36 221.5t-101.5 176t-158.5 115.5t-208 42t-208 -42t-158.5 -115.5t-100 -176t-34.5 -221.5zM651 1491l303 295h160l-346 -295h-117z" />
    <glyph glyph-name="Ocircumflex" unicode="&#xd4;" horiz-adv-x="1566" 
d="M104 682q0 152 49.5 281t138.5 224t214 148.5t276 53.5q152 0 277 -53.5t215 -148.5t139 -224t49 -281t-49 -281t-139 -224t-215 -148.5t-277 -53.5t-276.5 53.5t-213.5 148.5t-138.5 224t-49.5 281zM281 682q0 -119 34.5 -220.5t100 -176t158.5 -116.5t208 -42t208 42
t158.5 116.5t101.5 176t36 220.5t-36 221.5t-101.5 176t-158.5 115.5t-208 42t-208 -42t-158.5 -115.5t-100 -176t-34.5 -221.5zM516 1491l195 295h147l201 -295h-105l-170 217l-163 -217h-105z" />
    <glyph glyph-name="Otilde" unicode="&#xd5;" horiz-adv-x="1566" 
d="M104 682q0 152 49.5 281t138.5 224t214 148.5t276 53.5q152 0 277 -53.5t215 -148.5t139 -224t49 -281t-49 -281t-139 -224t-215 -148.5t-277 -53.5t-276.5 53.5t-213.5 148.5t-138.5 224t-49.5 281zM281 682q0 -119 34.5 -220.5t100 -176t158.5 -116.5t208 -42t208 42
t158.5 116.5t101.5 176t36 220.5t-36 221.5t-101.5 176t-158.5 115.5t-208 42t-208 -42t-158.5 -115.5t-100 -176t-34.5 -221.5zM463 1499q0 121 50 198t149 77q55 0 87.5 -30t56 -64.5t47.5 -64.5t60 -30q41 0 70 42t29 134h92q0 -121 -50.5 -197.5t-148.5 -76.5
q-55 0 -88 29.5t-56.5 64.5t-47 64.5t-60.5 29.5q-41 0 -69.5 -42t-28.5 -134h-92z" />
    <glyph glyph-name="Odieresis" unicode="&#xd6;" horiz-adv-x="1566" 
d="M104 682q0 152 49.5 281t138.5 224t214 148.5t276 53.5q152 0 277 -53.5t215 -148.5t139 -224t49 -281t-49 -281t-139 -224t-215 -148.5t-277 -53.5t-276.5 53.5t-213.5 148.5t-138.5 224t-49.5 281zM281 682q0 -119 34.5 -220.5t100 -176t158.5 -116.5t208 -42t208 42
t158.5 116.5t101.5 176t36 220.5t-36 221.5t-101.5 176t-158.5 115.5t-208 42t-208 -42t-158.5 -115.5t-100 -176t-34.5 -221.5zM475 1583q0 41 27.5 67.5t68.5 26.5q39 0 67 -26.5t28 -67.5q0 -39 -28 -66.5t-67 -27.5q-41 0 -68.5 27.5t-27.5 66.5zM899 1583
q0 41 27.5 67.5t66.5 26.5q41 0 69 -26.5t28 -67.5q0 -39 -28 -66.5t-69 -27.5q-39 0 -66.5 27.5t-27.5 66.5z" />
    <glyph glyph-name="multiply" unicode="&#xd7;" horiz-adv-x="1021" 
d="M131 379l305 305l-305 305l76 76l303 -305l305 305l76 -76l-303 -305l303 -305l-76 -76l-305 305l-303 -305z" />
    <glyph glyph-name="Oslash" unicode="&#xd8;" horiz-adv-x="1566" 
d="M104 682q0 152 49.5 281t138.5 224t214 148.5t276 53.5q98 0 183.5 -23t158.5 -63l43 63h138l-86 -129q115 -96 179 -238.5t64 -316.5q0 -152 -49 -281t-139 -224t-215 -148.5t-277 -53.5q-100 0 -188 24t-164 69l-45 -68h-137l90 133q-111 96 -172.5 236.5t-61.5 312.5z
M281 682q0 -127 38.5 -231.5t110.5 -180.5l606 901q-53 31 -117.5 48.5t-136.5 17.5q-115 0 -208 -42t-158.5 -115.5t-100 -176t-34.5 -221.5zM518 199q112 -72 264 -72q115 0 208 42t158.5 116.5t101.5 176t36 220.5q0 129 -41 236.5t-119 183.5z" />
    <glyph glyph-name="Ugrave" unicode="&#xd9;" horiz-adv-x="1435" 
d="M160 530v836h172v-831q0 -188 97 -298t288 -110q190 0 288.5 109.5t98.5 298.5v831h172v-834q0 -127 -35 -230t-105.5 -176t-175 -112t-243.5 -39t-242.5 40t-174.5 112t-105.5 174t-34.5 229zM393 1786h160l303 -295h-117z" />
    <glyph glyph-name="Uacute" unicode="&#xda;" horiz-adv-x="1435" 
d="M160 530v836h172v-831q0 -188 97 -298t288 -110q190 0 288.5 109.5t98.5 298.5v831h172v-834q0 -127 -35 -230t-105.5 -176t-175 -112t-243.5 -39t-242.5 40t-174.5 112t-105.5 174t-34.5 229zM582 1491l303 295h159l-346 -295h-116z" />
    <glyph glyph-name="Ucircumflex" unicode="&#xdb;" horiz-adv-x="1435" 
d="M160 530v836h172v-831q0 -188 97 -298t288 -110q190 0 288.5 109.5t98.5 298.5v831h172v-834q0 -127 -35 -230t-105.5 -176t-175 -112t-243.5 -39t-242.5 40t-174.5 112t-105.5 174t-34.5 229zM457 1491l194 295h148l200 -295h-104l-170 217l-164 -217h-104z" />
    <glyph glyph-name="Udieresis" unicode="&#xdc;" horiz-adv-x="1435" 
d="M160 530v836h172v-831q0 -188 97 -298t288 -110q190 0 288.5 109.5t98.5 298.5v831h172v-834q0 -127 -35 -230t-105.5 -176t-175 -112t-243.5 -39t-242.5 40t-174.5 112t-105.5 174t-34.5 229zM412 1583q0 41 27.5 67.5t68.5 26.5q39 0 66.5 -26.5t27.5 -67.5
q0 -39 -27.5 -66.5t-66.5 -27.5q-41 0 -68.5 27.5t-27.5 66.5zM836 1583q0 41 27.5 67.5t66.5 26.5q41 0 68.5 -26.5t27.5 -67.5q0 -39 -27.5 -66.5t-68.5 -27.5q-39 0 -66.5 27.5t-27.5 66.5z" />
    <glyph glyph-name="Yacute" unicode="&#xdd;" horiz-adv-x="1282" 
d="M18 1366h199l424 -635l424 635h199l-537 -788v-578h-170v578zM514 1491l303 295h160l-346 -295h-117z" />
    <glyph glyph-name="Thorn" unicode="&#xde;" horiz-adv-x="1202" 
d="M160 0v1366h170v-244h379q102 0 182 -32.5t134 -90t83 -132t29 -158.5t-29 -159t-83 -130t-134 -88t-182 -33h-379v-299h-170zM330 451h358q123 0 198 70.5t75 187.5t-75 189.5t-198 72.5h-358v-520z" />
    <glyph glyph-name="germandbls" unicode="&#xdf;" horiz-adv-x="1222" 
d="M156 0v1022q0 76 26.5 142.5t77.5 115.5t123 77.5t162 28.5q70 0 135 -17t114.5 -51t79 -82t29.5 -108q0 -55 -22.5 -95t-57.5 -69.5t-73.5 -54t-73.5 -50t-57.5 -56.5t-22.5 -72q0 -53 44 -80.5t108.5 -46t141.5 -36t141.5 -50.5t108.5 -89.5t44 -152.5
q0 -59 -23.5 -114.5t-71 -96t-119 -65.5t-167.5 -25q-74 0 -130.5 13.5t-101.5 35t-80.5 50t-68.5 61.5l78 107q43 -57 120.5 -98.5t182.5 -41.5q119 0 175 52.5t56 117.5q0 59 -44 91t-108.5 53.5t-141 39t-141 49.5t-109 84t-44.5 142q0 55 23 96t55.5 72t71.5 55.5
t71.5 49t55 50t22.5 58.5t-18 59.5t-47 43t-64.5 25.5t-72.5 9q-49 0 -91 -15t-74 -45t-50.5 -72t-18.5 -95v-1022h-153z" />
    <glyph glyph-name="agrave" unicode="&#xe0;" horiz-adv-x="1177" 
d="M96 494q0 119 33 215t91.5 163.5t139 104.5t177.5 37q100 0 187 -46t146 -128v149h154v-989h-154v147q-55 -76 -142 -124t-191 -48q-96 0 -177 36t-139.5 102.5t-91.5 163t-33 217.5zM256 494q0 -82 21.5 -152t62.5 -121t100 -79.5t135 -28.5q92 0 173 46t122 111v447
q-41 66 -121.5 113t-173.5 47q-76 0 -135 -29t-100 -80t-62.5 -122t-21.5 -152zM276 1434h160l303 -295h-116z" />
    <glyph glyph-name="aacute" unicode="&#xe1;" horiz-adv-x="1177" 
d="M96 494q0 119 33 215t91.5 163.5t139 104.5t177.5 37q100 0 187 -46t146 -128v149h154v-989h-154v147q-55 -76 -142 -124t-191 -48q-96 0 -177 36t-139.5 102.5t-91.5 163t-33 217.5zM256 494q0 -82 21.5 -152t62.5 -121t100 -79.5t135 -28.5q92 0 173 46t122 111v447
q-41 66 -121.5 113t-173.5 47q-76 0 -135 -29t-100 -80t-62.5 -122t-21.5 -152zM467 1139l303 295h160l-346 -295h-117z" />
    <glyph glyph-name="acircumflex" unicode="&#xe2;" horiz-adv-x="1177" 
d="M96 494q0 119 33 215t91.5 163.5t139 104.5t177.5 37q100 0 187 -46t146 -128v149h154v-989h-154v147q-55 -76 -142 -124t-191 -48q-96 0 -177 36t-139.5 102.5t-91.5 163t-33 217.5zM256 494q0 -82 21.5 -152t62.5 -121t100 -79.5t135 -28.5q92 0 173 46t122 111v447
q-41 66 -121.5 113t-173.5 47q-76 0 -135 -29t-100 -80t-62.5 -122t-21.5 -152zM330 1139l194 295h148l200 -295h-104l-170 217l-164 -217h-104z" />
    <glyph glyph-name="atilde" unicode="&#xe3;" horiz-adv-x="1177" 
d="M96 494q0 119 33 215t91.5 163.5t139 104.5t177.5 37q100 0 187 -46t146 -128v149h154v-989h-154v147q-55 -76 -142 -124t-191 -48q-96 0 -177 36t-139.5 102.5t-91.5 163t-33 217.5zM256 494q0 -82 21.5 -152t62.5 -121t100 -79.5t135 -28.5q92 0 173 46t122 111v447
q-41 66 -121.5 113t-173.5 47q-76 0 -135 -29t-100 -80t-62.5 -122t-21.5 -152zM281 1147q0 121 50 197.5t148 76.5q55 0 88 -29.5t56.5 -64.5t47 -64.5t60.5 -29.5q41 0 69.5 42t28.5 134h93q0 -121 -50.5 -197.5t-148.5 -76.5q-55 0 -88 29.5t-56.5 64.5t-47 64.5
t-60.5 29.5q-41 0 -69.5 -42t-28.5 -134h-92z" />
    <glyph glyph-name="adieresis" unicode="&#xe4;" horiz-adv-x="1177" 
d="M96 494q0 119 33 215t91.5 163.5t139 104.5t177.5 37q100 0 187 -46t146 -128v149h154v-989h-154v147q-55 -76 -142 -124t-191 -48q-96 0 -177 36t-139.5 102.5t-91.5 163t-33 217.5zM256 494q0 -82 21.5 -152t62.5 -121t100 -79.5t135 -28.5q92 0 173 46t122 111v447
q-41 66 -121.5 113t-173.5 47q-76 0 -135 -29t-100 -80t-62.5 -122t-21.5 -152zM293 1237q0 41 27.5 67.5t68.5 26.5q39 0 66.5 -26.5t27.5 -67.5q0 -39 -27.5 -66.5t-66.5 -27.5q-41 0 -68.5 27.5t-27.5 66.5zM717 1237q0 41 27.5 67.5t66.5 26.5q41 0 68.5 -26.5
t27.5 -67.5q0 -39 -27.5 -66.5t-68.5 -27.5q-39 0 -66.5 27.5t-27.5 66.5z" />
    <glyph glyph-name="aring" unicode="&#xe5;" horiz-adv-x="1177" 
d="M96 494q0 119 33 215t91.5 163.5t139 104.5t177.5 37q100 0 187 -46t146 -128v149h154v-989h-154v147q-55 -76 -142 -124t-191 -48q-96 0 -177 36t-139.5 102.5t-91.5 163t-33 217.5zM256 494q0 -82 21.5 -152t62.5 -121t100 -79.5t135 -28.5q92 0 173 46t122 111v447
q-41 66 -121.5 113t-173.5 47q-76 0 -135 -29t-100 -80t-62.5 -122t-21.5 -152zM393 1337q0 41 16.5 78t44 64.5t64.5 44t78 16.5q84 0 141.5 -59.5t57.5 -143.5t-57.5 -143t-141.5 -59q-41 0 -78 16t-64.5 44t-44 64.5t-16.5 77.5zM475 1337q0 -49 35 -84.5t86 -35.5
q49 0 84 35.5t35 84.5t-35 85t-84 36q-51 0 -86 -36t-35 -85z" />
    <glyph glyph-name="ae" unicode="&#xe6;" horiz-adv-x="1916" 
d="M96 494q0 119 33 215t91.5 163.5t139 104.5t177.5 37q100 0 187 -46t146 -128v149h154v-192q53 98 144.5 157.5t215.5 59.5q104 0 186.5 -41t138.5 -113t86 -169t30 -208v-39h-801q4 -70 30.5 -131t71.5 -107t108.5 -73t143.5 -27q86 0 167 32t141 93l73 -102
q-66 -70 -156 -112t-202 -42q-129 0 -225.5 56.5t-151.5 158.5v-190h-154v147q-55 -76 -142 -124t-191 -48q-96 0 -177 36t-139.5 102.5t-91.5 163t-33 217.5zM256 494q0 -82 21.5 -152t62.5 -121t100 -79.5t135 -28.5q92 0 173 46t122 111v447q-41 66 -121.5 113t-173.5 47
q-76 0 -135 -29t-100 -80t-62.5 -122t-21.5 -152zM1024 559h649q0 55 -19.5 112.5t-59.5 105.5t-101 79t-145 31q-80 0 -139.5 -30t-99.5 -78t-61.5 -106.5t-23.5 -113.5z" />
    <glyph glyph-name="ccedilla" unicode="&#xe7;" horiz-adv-x="1015" 
d="M96 496q0 111 36 205t100.5 163.5t155.5 109.5t202 40q135 0 220 -49.5t142 -122.5l-102 -92q-49 68 -111.5 97.5t-140.5 29.5t-141.5 -29t-108.5 -80t-68.5 -120.5t-23.5 -151.5t23.5 -153t68.5 -122t108.5 -79.5t141.5 -28.5q156 0 252 129l102 -95
q-53 -70 -130 -115.5t-193 -54.5l-33 -86q16 12 35.5 17.5t40.5 5.5q59 0 97 -37t38 -100q0 -76 -61.5 -120t-151.5 -44q-66 0 -121 18.5t-86 42.5l39 78q39 -31 81 -45t83 -14q51 0 88 22.5t37 63.5q0 33 -18.5 52t-57.5 19q-23 0 -43.5 -9t-34.5 -25l-67 39l45 125
q-100 8 -181.5 51t-139.5 111.5t-90 158.5t-32 195z" />
    <glyph glyph-name="egrave" unicode="&#xe8;" horiz-adv-x="1153" 
d="M96 496q0 106 37 201.5t101.5 165t153.5 110.5t196 41q113 0 200.5 -41t149 -113t93.5 -169t32 -208v-39h-799q4 -70 30.5 -132t72 -108t109 -74t142.5 -28q86 0 167 33t141 94l73 -100q-76 -74 -174 -114t-219 -40q-111 0 -204 38t-159.5 106.5t-104.5 164t-38 212.5z
M258 559h649q0 55 -19.5 112.5t-59.5 105.5t-101 79t-145 31q-80 0 -139.5 -30t-99.5 -78t-61.5 -106.5t-23.5 -113.5zM258 1434h160l303 -295h-117z" />
    <glyph glyph-name="eacute" unicode="&#xe9;" horiz-adv-x="1153" 
d="M96 496q0 106 37 201.5t101.5 165t153.5 110.5t196 41q113 0 200.5 -41t149 -113t93.5 -169t32 -208v-39h-799q4 -70 30.5 -132t72 -108t109 -74t142.5 -28q86 0 167 33t141 94l73 -100q-76 -74 -174 -114t-219 -40q-111 0 -204 38t-159.5 106.5t-104.5 164t-38 212.5z
M258 559h649q0 55 -19.5 112.5t-59.5 105.5t-101 79t-145 31q-80 0 -139.5 -30t-99.5 -78t-61.5 -106.5t-23.5 -113.5zM451 1139l303 295h159l-346 -295h-116z" />
    <glyph glyph-name="ecircumflex" unicode="&#xea;" horiz-adv-x="1153" 
d="M96 496q0 106 37 201.5t101.5 165t153.5 110.5t196 41q113 0 200.5 -41t149 -113t93.5 -169t32 -208v-39h-799q4 -70 30.5 -132t72 -108t109 -74t142.5 -28q86 0 167 33t141 94l73 -100q-76 -74 -174 -114t-219 -40q-111 0 -204 38t-159.5 106.5t-104.5 164t-38 212.5z
M258 559h649q0 55 -19.5 112.5t-59.5 105.5t-101 79t-145 31q-80 0 -139.5 -30t-99.5 -78t-61.5 -106.5t-23.5 -113.5zM315 1139l195 295h147l201 -295h-104l-170 217l-164 -217h-105z" />
    <glyph glyph-name="edieresis" unicode="&#xeb;" horiz-adv-x="1153" 
d="M96 496q0 106 37 201.5t101.5 165t153.5 110.5t196 41q113 0 200.5 -41t149 -113t93.5 -169t32 -208v-39h-799q4 -70 30.5 -132t72 -108t109 -74t142.5 -28q86 0 167 33t141 94l73 -100q-76 -74 -174 -114t-219 -40q-111 0 -204 38t-159.5 106.5t-104.5 164t-38 212.5z
M258 559h649q0 55 -19.5 112.5t-59.5 105.5t-101 79t-145 31q-80 0 -139.5 -30t-99.5 -78t-61.5 -106.5t-23.5 -113.5zM279 1237q0 41 27.5 67.5t68.5 26.5q39 0 66.5 -26.5t27.5 -67.5q0 -39 -27.5 -66.5t-66.5 -27.5q-41 0 -68.5 27.5t-27.5 66.5zM702 1237q0 41 28 67.5
t67 26.5q41 0 68.5 -26.5t27.5 -67.5q0 -39 -27.5 -66.5t-68.5 -27.5q-39 0 -67 27.5t-28 66.5z" />
    <glyph glyph-name="igrave" unicode="&#xec;" horiz-adv-x="460" 
d="M-98 1434h159l304 -295h-117zM154 0v989h153v-989h-153z" />
    <glyph glyph-name="iacute" unicode="&#xed;" horiz-adv-x="460" 
d="M96 1139l303 295h160l-346 -295h-117zM154 0v989h153v-989h-153z" />
    <glyph glyph-name="icircumflex" unicode="&#xee;" horiz-adv-x="460" 
d="M-39 1139l195 295h147l201 -295h-105l-170 217l-163 -217h-105zM154 0v989h153v-989h-153z" />
    <glyph glyph-name="idieresis" unicode="&#xef;" horiz-adv-x="460" 
d="M-76 1237q0 41 28 67.5t68 26.5q39 0 67 -26.5t28 -67.5q0 -39 -28 -66.5t-67 -27.5q-41 0 -68.5 27.5t-27.5 66.5zM154 0v989h153v-989h-153zM348 1237q0 41 27.5 67.5t66.5 26.5q41 0 69 -26.5t28 -67.5q0 -39 -28 -66.5t-69 -27.5q-39 0 -66.5 27.5t-27.5 66.5z" />
    <glyph glyph-name="eth" unicode="&#xf0;" 
d="M96 479q0 106 33 198.5t93.5 160t143.5 105.5t181 38q96 0 177 -41t146 -139q-57 102 -140 187t-187 161l-293 -131l-37 86l242 106q-37 25 -76 49.5t-78 49.5l84 127q59 -37 117.5 -76t111.5 -80l222 98l34 -84l-176 -77q82 -72 153 -151t121 -167t78.5 -186.5
t28.5 -206.5q0 -115 -33.5 -212t-97 -168t-155 -111t-203.5 -40q-111 0 -201 38t-154.5 105.5t-99.5 160t-35 200.5zM258 479q0 -74 21.5 -139.5t63.5 -116.5t102.5 -80.5t140.5 -29.5t140 29.5t102 80.5t63.5 117t21.5 139q0 72 -21.5 138.5t-63.5 116.5t-102 80t-140 30
t-140.5 -30t-102.5 -80t-63.5 -116.5t-21.5 -138.5z" />
    <glyph glyph-name="ntilde" unicode="&#xf1;" horiz-adv-x="1130" 
d="M160 0v989h153v-143q27 31 64 61.5t83 54t99 38t109 14.5q154 0 233.5 -79t79.5 -241v-694h-152v647q0 131 -61 180.5t-162 49.5q-92 0 -170 -47.5t-123 -106.5v-723h-153zM246 1147q0 121 50 197.5t148 76.5q55 0 88 -29.5t56.5 -64.5t47 -64.5t60.5 -29.5q41 0 70 42
t29 134h92q0 -121 -50.5 -197.5t-148.5 -76.5q-55 0 -88 29.5t-56.5 64.5t-47 64.5t-60.5 29.5q-41 0 -69.5 -42t-28.5 -134h-92z" />
    <glyph glyph-name="ograve" unicode="&#xf2;" 
d="M96 496q0 106 34 201.5t97.5 165t154.5 110.5t204 41t204 -41t154.5 -110.5t97 -165t33.5 -201.5q0 -109 -33.5 -203t-97 -165t-154.5 -112t-204 -41t-204 41t-154.5 112t-97.5 165t-34 203zM258 496q0 -76 21.5 -145.5t63.5 -122t102.5 -84t140.5 -31.5t140 31.5t102 84
t63.5 122t21.5 145.5t-21.5 144.5t-63.5 120.5t-102 84t-140 32t-140.5 -32t-102.5 -84t-63.5 -121t-21.5 -144zM258 1434h160l303 -295h-117z" />
    <glyph glyph-name="oacute" unicode="&#xf3;" 
d="M96 496q0 106 34 201.5t97.5 165t154.5 110.5t204 41t204 -41t154.5 -110.5t97 -165t33.5 -201.5q0 -109 -33.5 -203t-97 -165t-154.5 -112t-204 -41t-204 41t-154.5 112t-97.5 165t-34 203zM258 496q0 -76 21.5 -145.5t63.5 -122t102.5 -84t140.5 -31.5t140 31.5t102 84
t63.5 122t21.5 145.5t-21.5 144.5t-63.5 120.5t-102 84t-140 32t-140.5 -32t-102.5 -84t-63.5 -121t-21.5 -144zM451 1139l303 295h159l-346 -295h-116z" />
    <glyph glyph-name="ocircumflex" unicode="&#xf4;" 
d="M96 496q0 106 34 201.5t97.5 165t154.5 110.5t204 41t204 -41t154.5 -110.5t97 -165t33.5 -201.5q0 -109 -33.5 -203t-97 -165t-154.5 -112t-204 -41t-204 41t-154.5 112t-97.5 165t-34 203zM258 496q0 -76 21.5 -145.5t63.5 -122t102.5 -84t140.5 -31.5t140 31.5t102 84
t63.5 122t21.5 145.5t-21.5 144.5t-63.5 120.5t-102 84t-140 32t-140.5 -32t-102.5 -84t-63.5 -121t-21.5 -144zM317 1139l195 295h147l201 -295h-104l-170 217l-164 -217h-105z" />
    <glyph glyph-name="otilde" unicode="&#xf5;" 
d="M96 496q0 106 34 201.5t97.5 165t154.5 110.5t204 41t204 -41t154.5 -110.5t97 -165t33.5 -201.5q0 -109 -33.5 -203t-97 -165t-154.5 -112t-204 -41t-204 41t-154.5 112t-97.5 165t-34 203zM258 496q0 -76 21.5 -145.5t63.5 -122t102.5 -84t140.5 -31.5t140 31.5t102 84
t63.5 122t21.5 145.5t-21.5 144.5t-63.5 120.5t-102 84t-140 32t-140.5 -32t-102.5 -84t-63.5 -121t-21.5 -144zM266 1147q0 121 50.5 197.5t148.5 76.5q55 0 88 -29.5t56.5 -64.5t47 -64.5t60.5 -29.5q41 0 69.5 42t28.5 134h92q0 -121 -50 -197.5t-148 -76.5
q-55 0 -88 29.5t-56.5 64.5t-47 64.5t-60.5 29.5q-41 0 -70 -42t-29 -134h-92z" />
    <glyph glyph-name="odieresis" unicode="&#xf6;" 
d="M96 496q0 106 34 201.5t97.5 165t154.5 110.5t204 41t204 -41t154.5 -110.5t97 -165t33.5 -201.5q0 -109 -33.5 -203t-97 -165t-154.5 -112t-204 -41t-204 41t-154.5 112t-97.5 165t-34 203zM258 496q0 -76 21.5 -145.5t63.5 -122t102.5 -84t140.5 -31.5t140 31.5t102 84
t63.5 122t21.5 145.5t-21.5 144.5t-63.5 120.5t-102 84t-140 32t-140.5 -32t-102.5 -84t-63.5 -121t-21.5 -144zM279 1237q0 41 27.5 67.5t68.5 26.5q39 0 66.5 -26.5t27.5 -67.5q0 -39 -27.5 -66.5t-66.5 -27.5q-41 0 -68.5 27.5t-27.5 66.5zM702 1237q0 41 28 67.5
t67 26.5q41 0 68.5 -26.5t27.5 -67.5q0 -39 -27.5 -66.5t-68.5 -27.5q-39 0 -67 27.5t-28 66.5z" />
    <glyph glyph-name="divide" unicode="&#xf7;" horiz-adv-x="1046" 
d="M59 637v106h928v-106h-928zM430 295q0 39 27.5 66.5t66.5 27.5t66.5 -27.5t27.5 -66.5t-27.5 -66.5t-66.5 -27.5t-66.5 27.5t-27.5 66.5zM430 1079q0 39 27.5 65.5t66.5 26.5t66.5 -26.5t27.5 -65.5q0 -41 -27.5 -68.5t-66.5 -27.5t-66.5 27.5t-27.5 68.5z" />
    <glyph glyph-name="oslash" unicode="&#xf8;" 
d="M96 496q0 106 34 201.5t97.5 165t154.5 110.5t204 41q82 0 152.5 -21.5t127.5 -62.5l47 59h113l-92 -117q68 -72 104.5 -169t36.5 -207q0 -109 -33.5 -203t-97 -165t-155 -112t-203.5 -41q-170 0 -291 93l-53 -68h-111l98 125q-66 72 -99.5 166t-33.5 205zM258 496
q0 -70 17.5 -133.5t52.5 -114.5l446 567q-78 61 -188 62q-80 0 -140.5 -32t-102.5 -84t-63.5 -120.5t-21.5 -144.5zM385 182q82 -69 201 -69q80 0 140 31.5t102 84t63.5 122t21.5 145.5q0 72 -19.5 137t-57.5 117z" />
    <glyph glyph-name="ugrave" unicode="&#xf9;" horiz-adv-x="1128" 
d="M154 291v698h153v-651q0 -66 15.5 -109t45 -69.5t70.5 -36.5t92 -10q45 0 88.5 12t81 32.5t68.5 47t53 57.5v727h154v-989h-154v139q-57 -66 -149 -115t-203 -49q-315 0 -315 316zM242 1434h159l304 -295h-117z" />
    <glyph glyph-name="uacute" unicode="&#xfa;" horiz-adv-x="1128" 
d="M154 291v698h153v-651q0 -66 15.5 -109t45 -69.5t70.5 -36.5t92 -10q45 0 88.5 12t81 32.5t68.5 47t53 57.5v727h154v-989h-154v139q-57 -66 -149 -115t-203 -49q-315 0 -315 316zM432 1139l303 295h160l-346 -295h-117z" />
    <glyph glyph-name="ucircumflex" unicode="&#xfb;" horiz-adv-x="1128" 
d="M154 291v698h153v-651q0 -66 15.5 -109t45 -69.5t70.5 -36.5t92 -10q45 0 88.5 12t81 32.5t68.5 47t53 57.5v727h154v-989h-154v139q-57 -66 -149 -115t-203 -49q-315 0 -315 316zM295 1139l194 295h148l201 -295h-105l-170 217l-164 -217h-104z" />
    <glyph glyph-name="udieresis" unicode="&#xfc;" horiz-adv-x="1128" 
d="M154 291v698h153v-651q0 -66 15.5 -109t45 -69.5t70.5 -36.5t92 -10q45 0 88.5 12t81 32.5t68.5 47t53 57.5v727h154v-989h-154v139q-57 -66 -149 -115t-203 -49q-315 0 -315 316zM264 1237q0 41 27.5 67.5t68.5 26.5q39 0 67 -26.5t28 -67.5q0 -39 -28 -66.5t-67 -27.5
q-41 0 -68.5 27.5t-27.5 66.5zM688 1237q0 41 27.5 67.5t66.5 26.5q41 0 69 -26.5t28 -67.5q0 -39 -28 -66.5t-69 -27.5q-39 0 -66.5 27.5t-27.5 66.5z" />
    <glyph glyph-name="yacute" unicode="&#xfd;" horiz-adv-x="1128" 
d="M143 -252l78 111q55 -70 133 -101.5t168 -31.5q141 0 220 75.5t79 210.5v148q-57 -66 -149 -115t-203 -49q-156 0 -235.5 77t-79.5 238v678h153v-631q0 -66 15.5 -109.5t45 -69t70.5 -37t92 -11.5q90 0 169 45t122 105v708h154v-977q0 -104 -37 -182t-98.5 -129
t-143.5 -76.5t-174 -25.5q-123 0 -213 36.5t-166 112.5zM428 1139l303 295h160l-346 -295h-117z" />
    <glyph glyph-name="thorn" unicode="&#xfe;" 
d="M154 -377v1743h153v-524q53 76 141.5 124t192.5 48q98 0 179 -36t139.5 -102.5t90 -163t31.5 -216.5q0 -121 -31.5 -217.5t-90 -164t-139.5 -103.5t-179 -36q-102 0 -187 46.5t-147 128.5v-527h-153zM307 272q41 -66 122 -112.5t173 -46.5q74 0 133.5 28.5t100.5 79.5
t62.5 122t21.5 153t-21.5 151.5t-62.5 120.5t-100.5 80t-133.5 29q-92 0 -173 -46.5t-122 -111.5v-447z" />
    <glyph glyph-name="ydieresis" unicode="&#xff;" horiz-adv-x="1128" 
d="M143 -252l78 111q55 -70 133 -101.5t168 -31.5q141 0 220 75.5t79 210.5v148q-57 -66 -149 -115t-203 -49q-156 0 -235.5 77t-79.5 238v678h153v-631q0 -66 15.5 -109.5t45 -69t70.5 -37t92 -11.5q90 0 169 45t122 105v708h154v-977q0 -104 -37 -182t-98.5 -129
t-143.5 -76.5t-174 -25.5q-123 0 -213 36.5t-166 112.5zM250 1237q0 41 27.5 67.5t68.5 26.5q39 0 66.5 -26.5t27.5 -67.5q0 -39 -27.5 -66.5t-66.5 -27.5q-41 0 -68.5 27.5t-27.5 66.5zM674 1237q0 41 27.5 67.5t66.5 26.5q41 0 68.5 -26.5t27.5 -67.5q0 -39 -27.5 -66.5
t-68.5 -27.5q-39 0 -66.5 27.5t-27.5 66.5z" />
    <glyph glyph-name="OE" unicode="&#x152;" horiz-adv-x="2263" 
d="M104 682q0 152 48.5 281t135.5 223t208.5 147t271.5 53q145 0 278.5 -66.5t210.5 -201.5v248h895v-152h-725v-440h711v-151h-711v-471h725v-152h-895v248q-78 -135 -211 -204t-278 -69q-150 0 -271.5 53.5t-208.5 148.5t-135.5 224t-48.5 281zM281 682
q0 -119 34.5 -220.5t101 -176t161 -116.5t210.5 -42q158 0 283 83t186 249v448q-61 166 -186 247t-283 81q-117 0 -211 -42t-160.5 -115.5t-101 -175t-34.5 -220.5z" />
    <glyph glyph-name="oe" unicode="&#x153;" horiz-adv-x="1970" 
d="M96 496q0 106 34 201.5t97.5 165t154.5 110.5t204 41q92 0 161.5 -30t118.5 -73t81 -92t48 -88q16 41 49 90t82.5 92t118 72t156.5 29q113 0 201 -41t149 -113t93 -169t32 -208v-39h-799q4 -70 31 -132t72 -108t108.5 -74t143.5 -28q86 0 166.5 33t140.5 94l73 -100
q-76 -74 -174 -114t-219 -40q-96 0 -166.5 28t-122 71t-85 92t-52.5 92q-18 -41 -50 -90t-80 -92t-116.5 -72t-160.5 -29q-113 0 -204 41t-154.5 112t-97.5 165t-34 203zM258 496q0 -78 22.5 -149t64.5 -123t102.5 -82.5t138.5 -30.5t138 30.5t102 82.5t64.5 123t22.5 149
t-22.5 146.5t-64.5 120.5t-102 83t-138 31t-138.5 -31t-102.5 -83t-64.5 -121t-22.5 -146zM1075 559h651q-2 55 -21 112.5t-59 105.5t-100.5 79t-144.5 31q-80 0 -139.5 -30t-100.5 -78t-62.5 -106.5t-23.5 -113.5z" />
    <glyph glyph-name="Ydieresis" unicode="&#x178;" horiz-adv-x="1282" 
d="M18 1366h199l424 -635l424 635h199l-537 -788v-578h-170v578zM340 1583q0 41 27.5 67.5t68.5 26.5q39 0 66.5 -26.5t27.5 -67.5q0 -39 -27.5 -66.5t-66.5 -27.5q-41 0 -68.5 27.5t-27.5 66.5zM764 1583q0 41 27.5 67.5t66.5 26.5q41 0 68.5 -26.5t27.5 -67.5
q0 -39 -27.5 -66.5t-68.5 -27.5q-39 0 -66.5 27.5t-27.5 66.5z" />
    <glyph glyph-name="circumflex" unicode="&#x2c6;" horiz-adv-x="542" 
d="M0 1139l195 295h147l201 -295h-105l-170 217l-164 -217h-104z" />
    <glyph glyph-name="tilde" unicode="&#x2dc;" horiz-adv-x="641" 
d="M0 1147q0 121 50 197.5t149 76.5q55 0 87.5 -29.5t56.5 -64.5t47.5 -64.5t60.5 -29.5q41 0 69.5 42t28.5 134h92q0 -121 -50.5 -197.5t-148.5 -76.5q-55 0 -87.5 29.5t-56.5 64.5t-47.5 64.5t-60.5 29.5q-41 0 -69.5 -42t-28.5 -134h-92z" />
    <glyph glyph-name="uni2000" unicode="&#x2000;" horiz-adv-x="911" 
 />
    <glyph glyph-name="uni2001" unicode="&#x2001;" horiz-adv-x="1823" 
 />
    <glyph glyph-name="uni2002" unicode="&#x2002;" horiz-adv-x="911" 
 />
    <glyph glyph-name="uni2003" unicode="&#x2003;" horiz-adv-x="1823" 
 />
    <glyph glyph-name="uni2004" unicode="&#x2004;" horiz-adv-x="607" 
 />
    <glyph glyph-name="uni2005" unicode="&#x2005;" horiz-adv-x="455" 
 />
    <glyph glyph-name="uni2006" unicode="&#x2006;" horiz-adv-x="303" 
 />
    <glyph glyph-name="uni2007" unicode="&#x2007;" horiz-adv-x="303" 
 />
    <glyph glyph-name="uni2008" unicode="&#x2008;" horiz-adv-x="227" 
 />
    <glyph glyph-name="uni2009" unicode="&#x2009;" horiz-adv-x="364" 
 />
    <glyph glyph-name="uni200A" unicode="&#x200a;" horiz-adv-x="101" 
 />
    <glyph glyph-name="uni2010" unicode="&#x2010;" horiz-adv-x="614" 
d="M61 428v135h492v-135h-492z" />
    <glyph glyph-name="uni2011" unicode="&#x2011;" horiz-adv-x="614" 
d="M61 428v135h492v-135h-492z" />
    <glyph glyph-name="figuredash" unicode="&#x2012;" horiz-adv-x="614" 
d="M61 428v135h492v-135h-492z" />
    <glyph glyph-name="endash" unicode="&#x2013;" horiz-adv-x="1214" 
d="M61 428v135h1092v-135h-1092z" />
    <glyph glyph-name="emdash" unicode="&#x2014;" horiz-adv-x="1705" 
d="M61 428v135h1584v-135h-1584z" />
    <glyph glyph-name="quoteleft" unicode="&#x2018;" horiz-adv-x="471" 
d="M98 1079q0 94 47.5 176t116.5 131l78 -61q-49 -33 -88 -87t-45 -103q4 0 12 2t17 2q41 0 69.5 -30t28.5 -75q0 -47 -31 -78.5t-78 -31.5q-51 0 -89 39.5t-38 115.5z" />
    <glyph glyph-name="quoteright" unicode="&#x2019;" horiz-adv-x="471" 
d="M117 985q49 33 88 87t45 104q-8 -4 -29 -5q-41 0 -69.5 30t-28.5 75t30.5 77.5t77.5 32.5q53 0 91 -39.5t38 -115.5q0 -94 -47 -176t-118 -133z" />
    <glyph glyph-name="quotesinglbase" unicode="&#x201a;" horiz-adv-x="471" 
d="M117 -197q49 33 88 86.5t45 104.5q-8 -4 -29 -4q-41 0 -69.5 29.5t-28.5 74.5t30.5 78t77.5 33q53 0 91 -41t38 -115q0 -94 -47 -176t-118 -133z" />
    <glyph glyph-name="quotedblleft" unicode="&#x201c;" horiz-adv-x="798" 
d="M111 1079q0 94 47 176t118 131l76 -61q-49 -33 -87 -87t-44 -103q2 0 10.5 2t16.5 2q43 0 71.5 -30t28.5 -75q0 -47 -31.5 -78.5t-78.5 -31.5q-51 0 -89 39.5t-38 115.5zM438 1079q0 94 47 176t119 131l76 -61q-49 -33 -87 -87t-44 -103q4 0 12 2t14 2q43 0 72 -30
t29 -75q0 -47 -32 -78.5t-79 -31.5q-51 0 -89 39.5t-38 115.5z" />
    <glyph glyph-name="quotedblright" unicode="&#x201d;" horiz-adv-x="798" 
d="M117 985q49 33 88 87t45 104q-8 -4 -29 -5q-41 0 -69.5 30t-28.5 75t30.5 77.5t77.5 32.5q53 0 91 -39.5t38 -115.5q0 -94 -47 -176t-118 -133zM446 985q49 33 87 87t45 104q-2 -2 -11.5 -3.5t-15.5 -1.5q-43 0 -71.5 30t-28.5 75t31.5 77.5t78.5 32.5q51 0 89 -39.5
t38 -115.5q0 -94 -47 -176t-119 -133z" />
    <glyph glyph-name="quotedblbase" unicode="&#x201e;" horiz-adv-x="798" 
d="M117 -197q49 33 88 86.5t45 104.5q-8 -4 -29 -4q-41 0 -69.5 29.5t-28.5 74.5t30.5 78t77.5 33q53 0 91 -41t38 -115q0 -94 -47 -176t-118 -133zM446 -197q49 33 87 86.5t45 104.5q-2 -2 -11.5 -3t-15.5 -1q-43 0 -71.5 29.5t-28.5 74.5t31.5 78t78.5 33q51 0 89 -41
t38 -115q0 -94 -47 -176t-119 -133z" />
    <glyph glyph-name="bullet" unicode="&#x2022;" horiz-adv-x="733" 
d="M147 496q0 45 17.5 85t48.5 70.5t71 48t85 17.5t85 -17.5t70.5 -48t48 -70.5t17.5 -85t-17.5 -85t-48 -70t-70.5 -47.5t-85 -17.5t-85 17.5t-71 47.5t-48.5 70t-17.5 85z" />
    <glyph glyph-name="ellipsis" unicode="&#x2026;" horiz-adv-x="1415" 
d="M123 92q0 47 32.5 80t80.5 33q47 0 79.5 -33t32.5 -80q0 -45 -32.5 -78.5t-79.5 -33.5t-80 33.5t-33 78.5zM594 92q0 47 32.5 80t80.5 33q47 0 79.5 -33t32.5 -80q0 -45 -32.5 -78.5t-79.5 -33.5t-80 33.5t-33 78.5zM1067 92q0 47 33 80t80 33t78.5 -33t31.5 -80
q0 -45 -31.5 -78.5t-78.5 -33.5t-80 33.5t-33 78.5z" />
    <glyph glyph-name="uni202F" unicode="&#x202f;" horiz-adv-x="364" 
 />
    <glyph glyph-name="guilsinglleft" unicode="&#x2039;" horiz-adv-x="604" 
d="M61 498l328 362h154l-328 -362l328 -369h-154z" />
    <glyph glyph-name="guilsinglright" unicode="&#x203a;" horiz-adv-x="604" 
d="M61 129l328 369l-328 362h154l328 -362l-328 -369h-154z" />
    <glyph glyph-name="uni205F" unicode="&#x205f;" horiz-adv-x="455" 
 />
    <glyph glyph-name="Euro" unicode="&#x20ac;" horiz-adv-x="1423" 
d="M63 485v107h91q-2 23 -3 45t-1 45t1 47.5t3 46.5h-91v109h113q31 115 94.5 208t152.5 158.5t197.5 101.5t231.5 36q182 0 309 -77t209 -194l-141 -80q-59 88 -159.5 143.5t-217.5 55.5q-176 0 -308 -95t-188 -257h619v-109h-643q-6 -47 -6 -94t6 -90h643v-107h-619
q27 -82 75 -147.5t112.5 -112.5t142.5 -72.5t166 -25.5q117 0 217 56.5t160 142.5l143 -78q-86 -119 -212 -196t-308 -77q-123 0 -233.5 36t-199.5 102.5t-151.5 161t-93.5 210.5h-111z" />
    <glyph glyph-name="trademark" unicode="&#x2122;" horiz-adv-x="929" 
d="M35 1313v53h311v-53h-127v-398h-57v398h-127zM420 915v451h88l131 -328l131 328h88v-451h-57v373l-154 -373h-16l-154 373v-373h-57z" />
    <glyph glyph-name="uniE000" unicode="&#xe000;" horiz-adv-x="993" 
d="M0 0v993h993v-993h-993z" />
  </font>
</defs>
</svg>
